<mxfile host="65bd71144e">
    <diagram id="2EbY4mTTDu6nuVctOjwP" name="Page-1">
        <mxGraphModel dx="1798" dy="1900" grid="0" gridSize="10" guides="0" tooltips="1" connect="1" arrows="1" fold="1" page="1" pageScale="1" pageWidth="827" pageHeight="1169" math="0" shadow="0">
            <root>
                <mxCell id="0"/>
                <mxCell id="1" parent="0"/>
                <mxCell id="2" value="&lt;section style=&quot;scrollbar-color: var(--vscode-scrollbarSlider-background,#424242) var(--vscode-editor-background,#1e1e1e); border-radius: 4px; line-height: 19.5px; margin: 6px 0px; position: relative; scroll-margin-bottom: 40px; scroll-margin-top: 40px; color: rgb(216, 222, 233); font-family: -apple-system, &amp;quot;system-ui&amp;quot;, sans-serif; font-size: 13px; text-align: start; background-color: rgb(20, 20, 20);&quot; data-section-index=&quot;4&quot; data-markdown-raw=&quot;#### **1. User Requests Training Exercises**&lt;br/&gt;- **Function:** `get_training_exercises` (`routes/ai/training_routes.py`)&lt;br/&gt;- **What happens:**&quot; class=&quot;markdown-section&quot; id=&quot;markdown-section-f274938c-abde-4199-8db5-20c439f56b51-4&quot;&gt;&lt;h4 style=&quot;scrollbar-color: var(--vscode-scrollbarSlider-background,#424242) var(--vscode-editor-background,#1e1e1e); font-size: 1.05em; line-height: 1.25; margin-bottom: 8px; margin-top: 16px;&quot;&gt;&lt;span style=&quot;scrollbar-color: var(--vscode-scrollbarSlider-background,#424242) var(--vscode-editor-background,#1e1e1e);&quot; class=&quot;markdown-bold-text&quot;&gt;&lt;span style=&quot;scrollbar-color: var(--vscode-scrollbarSlider-background,#424242) var(--vscode-editor-background,#1e1e1e);&quot;&gt;1&lt;/span&gt;&lt;span style=&quot;scrollbar-color: var(--vscode-scrollbarSlider-background,#424242) var(--vscode-editor-background,#1e1e1e);&quot;&gt;. User&lt;/span&gt;&lt;span style=&quot;scrollbar-color: var(--vscode-scrollbarSlider-background,#424242) var(--vscode-editor-background,#1e1e1e);&quot;&gt;&amp;nbsp;Requests&lt;/span&gt;&lt;span style=&quot;scrollbar-color: var(--vscode-scrollbarSlider-background,#424242) var(--vscode-editor-background,#1e1e1e);&quot;&gt;&amp;nbsp;Training Exercises&lt;/span&gt;&lt;/span&gt;&lt;/h4&gt;&lt;ul style=&quot;scrollbar-color: var(--vscode-scrollbarSlider-background,#424242) var(--vscode-editor-background,#1e1e1e); margin: 0px 0px 0px 16px; padding: 0px;&quot;&gt;&lt;li style=&quot;scrollbar-color: var(--vscode-scrollbarSlider-background,#424242) var(--vscode-editor-background,#1e1e1e); margin-bottom: 2px !important; margin-top: 2px !important; margin-left: 0px; padding-top: 2px; padding-bottom: 2px; list-style-type: disc;&quot; data-indent=&quot;0&quot;&gt;&lt;span style=&quot;scrollbar-color: var(--vscode-scrollbarSlider-background,#424242) var(--vscode-editor-background,#1e1e1e); font-weight: 600;&quot; class=&quot;markdown-bold-text&quot;&gt;&lt;span style=&quot;scrollbar-color: var(--vscode-scrollbarSlider-background,#424242) var(--vscode-editor-background,#1e1e1e);&quot;&gt;Function&lt;/span&gt;&lt;span style=&quot;scrollbar-color: var(--vscode-scrollbarSlider-background,#424242) var(--vscode-editor-background,#1e1e1e);&quot;&gt;:&lt;/span&gt;&lt;/span&gt;&lt;span style=&quot;scrollbar-color: var(--vscode-scrollbarSlider-background,#424242) var(--vscode-editor-background,#1e1e1e);&quot;&gt;&amp;nbsp;&lt;/span&gt;&lt;span style=&quot;scrollbar-color: var(--vscode-scrollbarSlider-background,#424242) var(--vscode-editor-background,#1e1e1e); line-height: 1.4; background-color: var(--vscode-textCodeBlock-background); border-radius: 4px; color: var(--vscode-textLink-foreground); font-family: Menlo, Monaco, &amp;quot;Courier New&amp;quot;, monospace, Menlo, Monaco, &amp;quot;Courier New&amp;quot;, monospace; font-size: 0.9em; padding: 1.5px 3px; transition: 0.1s; border-color: var(--vscode-textLink-foreground); word-break: break-all; cursor: pointer;&quot; class=&quot;markdown-inline-code leading-[1.4]&quot;&gt;&lt;span style=&quot;scrollbar-color: var(--vscode-scrollbarSlider-background,#424242) var(--vscode-editor-background,#1e1e1e);&quot;&gt;get_training_exercises&lt;/span&gt;&lt;/span&gt;&lt;span style=&quot;scrollbar-color: var(--vscode-scrollbarSlider-background,#424242) var(--vscode-editor-background,#1e1e1e);&quot;&gt;&amp;nbsp;(&lt;/span&gt;&lt;span style=&quot;scrollbar-color: var(--vscode-scrollbarSlider-background,#424242) var(--vscode-editor-background,#1e1e1e); line-height: 1.4; background-color: var(--vscode-textCodeBlock-background); border-radius: 4px; color: var(--vscode-textLink-foreground); font-family: Menlo, Monaco, &amp;quot;Courier New&amp;quot;, monospace, Menlo, Monaco, &amp;quot;Courier New&amp;quot;, monospace; font-size: 0.9em; padding: 1.5px 3px; transition: 0.1s; border-color: var(--vscode-textLink-foreground); word-break: break-all; cursor: pointer;&quot; class=&quot;markdown-inline-code leading-[1.4]&quot;&gt;&lt;span style=&quot;scrollbar-color: var(--vscode-scrollbarSlider-background,#424242) var(--vscode-editor-background,#1e1e1e);&quot;&gt;routes/ai/training_routes.py&lt;/span&gt;&lt;/span&gt;&lt;span style=&quot;scrollbar-color: var(--vscode-scrollbarSlider-background,#424242) var(--vscode-editor-background,#1e1e1e);&quot;&gt;)&lt;/span&gt;&lt;/li&gt;&lt;/ul&gt;&lt;ul style=&quot;scrollbar-color: var(--vscode-scrollbarSlider-background,#424242) var(--vscode-editor-background,#1e1e1e); margin: 0px 0px 0px 16px; padding: 0px;&quot;&gt;&lt;li style=&quot;scrollbar-color: var(--vscode-scrollbarSlider-background,#424242) var(--vscode-editor-background,#1e1e1e); margin-bottom: 2px !important; margin-top: 2px !important; margin-left: 0px; padding-top: 2px; padding-bottom: 2px; list-style-type: disc;&quot; data-indent=&quot;0&quot;&gt;&lt;span style=&quot;scrollbar-color: var(--vscode-scrollbarSlider-background,#424242) var(--vscode-editor-background,#1e1e1e); font-weight: 600;&quot; class=&quot;markdown-bold-text&quot;&gt;What happens:&lt;/span&gt;&lt;span style=&quot;scrollbar-color: var(--vscode-scrollbarSlider-background,#424242) var(--vscode-editor-background,#1e1e1e);&quot;&gt;&lt;/span&gt;&lt;/li&gt;&lt;/ul&gt;&lt;/section&gt;&lt;section style=&quot;scrollbar-color: var(--vscode-scrollbarSlider-background,#424242) var(--vscode-editor-background,#1e1e1e); border-radius: 4px; line-height: 19.5px; margin: 6px 0px; position: relative; scroll-margin-bottom: 40px; scroll-margin-top: 40px; color: rgb(216, 222, 233); font-family: -apple-system, &amp;quot;system-ui&amp;quot;, sans-serif; font-size: 13px; text-align: start; background-color: rgb(20, 20, 20);&quot; data-section-index=&quot;5&quot; data-markdown-raw=&quot;The user has no previous exercises, so the backend starts the generation process.&quot; class=&quot;markdown-section&quot; id=&quot;markdown-section-f274938c-abde-4199-8db5-20c439f56b51-5&quot;&gt;&lt;span style=&quot;scrollbar-color: var(--vscode-scrollbarSlider-background,#424242) var(--vscode-editor-background,#1e1e1e);&quot;&gt;The&lt;/span&gt;&lt;span style=&quot;scrollbar-color: var(--vscode-scrollbarSlider-background,#424242) var(--vscode-editor-background,#1e1e1e);&quot;&gt;&amp;nbsp;user&lt;/span&gt;&lt;span style=&quot;scrollbar-color: var(--vscode-scrollbarSlider-background,#424242) var(--vscode-editor-background,#1e1e1e);&quot;&gt;&amp;nbsp;has&lt;/span&gt;&lt;span style=&quot;scrollbar-color: var(--vscode-scrollbarSlider-background,#424242) var(--vscode-editor-background,#1e1e1e);&quot;&gt;&amp;nbsp;no previous&lt;/span&gt;&lt;span style=&quot;scrollbar-color: var(--vscode-scrollbarSlider-background,#424242) var(--vscode-editor-background,#1e1e1e);&quot;&gt;&amp;nbsp;exercises&lt;/span&gt;&lt;span style=&quot;scrollbar-color: var(--vscode-scrollbarSlider-background,#424242) var(--vscode-editor-background,#1e1e1e);&quot;&gt;, so&lt;/span&gt;&lt;span style=&quot;scrollbar-color: var(--vscode-scrollbarSlider-background,#424242) var(--vscode-editor-background,#1e1e1e);&quot;&gt;&amp;nbsp;the&lt;/span&gt;&lt;span style=&quot;scrollbar-color: var(--vscode-scrollbarSlider-background,#424242) var(--vscode-editor-background,#1e1e1e);&quot;&gt;&amp;nbsp;backend starts the generation&lt;/span&gt;&lt;span style=&quot;scrollbar-color: var(--vscode-scrollbarSlider-background,#424242) var(--vscode-editor-background,#1e1e1e);&quot;&gt;&amp;nbsp;process.&lt;/span&gt;&lt;/section&gt;" style="rounded=0;whiteSpace=wrap;html=1;" vertex="1" parent="1">
                    <mxGeometry x="100" y="230" width="610" height="190" as="geometry"/>
                </mxCell>
                <mxCell id="3" value="&lt;meta charset=&quot;utf-8&quot;&gt;&lt;section style=&quot;scrollbar-color: var(--vscode-scrollbarSlider-background,#424242) var(--vscode-editor-background,#1e1e1e); border-radius: 4px; line-height: 19.5px; margin: 6px 0px; position: relative; scroll-margin-bottom: 40px; scroll-margin-top: 40px; color: rgb(216, 222, 233); font-family: -apple-system, &amp;quot;system-ui&amp;quot;, sans-serif; font-size: 13px; font-style: normal; font-variant-ligatures: normal; font-variant-caps: normal; font-weight: 400; letter-spacing: normal; orphans: 2; text-align: start; text-indent: 0px; text-transform: none; widows: 2; word-spacing: 0px; -webkit-text-stroke-width: 0px; background-color: rgb(20, 20, 20); text-decoration-thickness: initial; text-decoration-style: initial; text-decoration-color: initial;&quot; data-section-index=&quot;7&quot; data-markdown-raw=&quot;#### **2. Generate Training Exercises**&#10;- **Function:** `generate_training_exercises` (`helpers/exercise_helpers.py`)&#10;- **What happens:**&quot; class=&quot;markdown-section&quot; id=&quot;markdown-section-f274938c-abde-4199-8db5-20c439f56b51-7&quot;&gt;&lt;h4 style=&quot;scrollbar-color: var(--vscode-scrollbarSlider-background,#424242) var(--vscode-editor-background,#1e1e1e); font-size: 1.05em; line-height: 1.25; margin-bottom: 8px; margin-top: 16px;&quot;&gt;&lt;span style=&quot;scrollbar-color: var(--vscode-scrollbarSlider-background,#424242) var(--vscode-editor-background,#1e1e1e); font-weight: 600;&quot; class=&quot;markdown-bold-text&quot;&gt;&lt;span style=&quot;scrollbar-color: var(--vscode-scrollbarSlider-background,#424242) var(--vscode-editor-background,#1e1e1e);&quot;&gt;2&lt;/span&gt;&lt;span style=&quot;scrollbar-color: var(--vscode-scrollbarSlider-background,#424242) var(--vscode-editor-background,#1e1e1e);&quot;&gt;. Generate&lt;/span&gt;&lt;span style=&quot;scrollbar-color: var(--vscode-scrollbarSlider-background,#424242) var(--vscode-editor-background,#1e1e1e);&quot;&gt;&lt;span&gt;&amp;nbsp;&lt;/span&gt;Training Exercises&lt;/span&gt;&lt;/span&gt;&lt;/h4&gt;&lt;ul style=&quot;scrollbar-color: var(--vscode-scrollbarSlider-background,#424242) var(--vscode-editor-background,#1e1e1e); margin: 0px 0px 0px 16px; padding: 0px;&quot;&gt;&lt;li style=&quot;scrollbar-color: var(--vscode-scrollbarSlider-background,#424242) var(--vscode-editor-background,#1e1e1e); margin-bottom: 2px !important; margin-top: 2px !important; margin-left: 0px; padding-top: 2px; padding-bottom: 2px; list-style-type: disc;&quot; data-indent=&quot;0&quot;&gt;&lt;span style=&quot;scrollbar-color: var(--vscode-scrollbarSlider-background,#424242) var(--vscode-editor-background,#1e1e1e); font-weight: 600;&quot; class=&quot;markdown-bold-text&quot;&gt;&lt;span style=&quot;scrollbar-color: var(--vscode-scrollbarSlider-background,#424242) var(--vscode-editor-background,#1e1e1e);&quot;&gt;Function:&lt;/span&gt;&lt;/span&gt;&lt;span style=&quot;scrollbar-color: var(--vscode-scrollbarSlider-background,#424242) var(--vscode-editor-background,#1e1e1e);&quot;&gt;&lt;span&gt;&amp;nbsp;&lt;/span&gt;&lt;/span&gt;&lt;span style=&quot;scrollbar-color: var(--vscode-scrollbarSlider-background,#424242) var(--vscode-editor-background,#1e1e1e); line-height: 1.4; background-color: var(--vscode-textCodeBlock-background); border-radius: 4px; color: var(--vscode-textLink-foreground); font-family: Menlo, Monaco, &amp;quot;Courier New&amp;quot;, monospace, Menlo, Monaco, &amp;quot;Courier New&amp;quot;, monospace; font-size: 0.9em; padding: 1.5px 3px; transition: 0.1s; border-color: var(--vscode-textLink-foreground); word-break: break-all; cursor: pointer;&quot; class=&quot;markdown-inline-code leading-[1.4]&quot;&gt;&lt;span style=&quot;scrollbar-color: var(--vscode-scrollbarSlider-background,#424242) var(--vscode-editor-background,#1e1e1e);&quot;&gt;generate_training&lt;/span&gt;&lt;span style=&quot;scrollbar-color: var(--vscode-scrollbarSlider-background,#424242) var(--vscode-editor-background,#1e1e1e);&quot;&gt;_exercises&lt;/span&gt;&lt;/span&gt;&lt;span style=&quot;scrollbar-color: var(--vscode-scrollbarSlider-background,#424242) var(--vscode-editor-background,#1e1e1e);&quot;&gt;&lt;span&gt;&amp;nbsp;&lt;/span&gt;(&lt;/span&gt;&lt;span style=&quot;scrollbar-color: var(--vscode-scrollbarSlider-background,#424242) var(--vscode-editor-background,#1e1e1e); line-height: 1.4; background-color: var(--vscode-textCodeBlock-background); border-radius: 4px; color: var(--vscode-textLink-foreground); font-family: Menlo, Monaco, &amp;quot;Courier New&amp;quot;, monospace, Menlo, Monaco, &amp;quot;Courier New&amp;quot;, monospace; font-size: 0.9em; padding: 1.5px 3px; transition: 0.1s; border-color: var(--vscode-textLink-foreground); word-break: break-all; cursor: pointer;&quot; class=&quot;markdown-inline-code leading-[1.4]&quot;&gt;&lt;span style=&quot;scrollbar-color: var(--vscode-scrollbarSlider-background,#424242) var(--vscode-editor-background,#1e1e1e);&quot;&gt;helpers/exercise_helpers&lt;/span&gt;&lt;span style=&quot;scrollbar-color: var(--vscode-scrollbarSlider-background,#424242) var(--vscode-editor-background,#1e1e1e);&quot;&gt;.py&lt;/span&gt;&lt;/span&gt;&lt;span style=&quot;scrollbar-color: var(--vscode-scrollbarSlider-background,#424242) var(--vscode-editor-background,#1e1e1e);&quot;&gt;)&lt;/span&gt;&lt;/li&gt;&lt;/ul&gt;&lt;ul style=&quot;scrollbar-color: var(--vscode-scrollbarSlider-background,#424242) var(--vscode-editor-background,#1e1e1e); margin: 0px 0px 0px 16px; padding: 0px;&quot;&gt;&lt;li style=&quot;scrollbar-color: var(--vscode-scrollbarSlider-background,#424242) var(--vscode-editor-background,#1e1e1e); margin-bottom: 2px !important; margin-top: 2px !important; margin-left: 0px; padding-top: 2px; padding-bottom: 2px; list-style-type: disc;&quot; data-indent=&quot;0&quot;&gt;&lt;span style=&quot;scrollbar-color: var(--vscode-scrollbarSlider-background,#424242) var(--vscode-editor-background,#1e1e1e); font-weight: 600;&quot; class=&quot;markdown-bold-text&quot;&gt;&lt;span style=&quot;scrollbar-color: var(--vscode-scrollbarSlider-background,#424242) var(--vscode-editor-background,#1e1e1e);&quot;&gt;What happens:&lt;/span&gt;&lt;/span&gt;&lt;span style=&quot;scrollbar-color: var(--vscode-scrollbarSlider-background,#424242) var(--vscode-editor-background,#1e1e1e);&quot;&gt;&lt;/span&gt;&lt;/li&gt;&lt;/ul&gt;&lt;/section&gt;&lt;section style=&quot;scrollbar-color: var(--vscode-scrollbarSlider-background,#424242) var(--vscode-editor-background,#1e1e1e); border-radius: 4px; line-height: 19.5px; margin: 6px 0px; position: relative; scroll-margin-bottom: 40px; scroll-margin-top: 40px; color: rgb(216, 222, 233); font-family: -apple-system, &amp;quot;system-ui&amp;quot;, sans-serif; font-size: 13px; font-style: normal; font-variant-ligatures: normal; font-variant-caps: normal; font-weight: 400; letter-spacing: normal; orphans: 2; text-align: start; text-indent: 0px; text-transform: none; widows: 2; word-spacing: 0px; -webkit-text-stroke-width: 0px; background-color: rgb(20, 20, 20); text-decoration-thickness: initial; text-decoration-style: initial; text-decoration-color: initial;&quot; data-section-index=&quot;8&quot; data-markdown-raw=&quot;Detects the user is new (no recent questions), so it calls:&quot; class=&quot;markdown-section&quot; id=&quot;markdown-section-f274938c-abde-4199-8db5-20c439f56b51-8&quot;&gt;&lt;span style=&quot;scrollbar-color: var(--vscode-scrollbarSlider-background,#424242) var(--vscode-editor-background,#1e1e1e);&quot;&gt;Detect&lt;/span&gt;&lt;span style=&quot;scrollbar-color: var(--vscode-scrollbarSlider-background,#424242) var(--vscode-editor-background,#1e1e1e);&quot;&gt;s the&lt;/span&gt;&lt;span style=&quot;scrollbar-color: var(--vscode-scrollbarSlider-background,#424242) var(--vscode-editor-background,#1e1e1e);&quot;&gt;&lt;span&gt;&amp;nbsp;&lt;/span&gt;user&lt;/span&gt;&lt;span style=&quot;scrollbar-color: var(--vscode-scrollbarSlider-background,#424242) var(--vscode-editor-background,#1e1e1e);&quot;&gt;&lt;span&gt;&amp;nbsp;&lt;/span&gt;is&lt;/span&gt;&lt;span style=&quot;scrollbar-color: var(--vscode-scrollbarSlider-background,#424242) var(--vscode-editor-background,#1e1e1e);&quot;&gt;&lt;span&gt;&amp;nbsp;&lt;/span&gt;new&lt;/span&gt;&lt;span style=&quot;scrollbar-color: var(--vscode-scrollbarSlider-background,#424242) var(--vscode-editor-background,#1e1e1e);&quot;&gt;&lt;span&gt;&amp;nbsp;&lt;/span&gt;(no recent&lt;/span&gt;&lt;span style=&quot;scrollbar-color: var(--vscode-scrollbarSlider-background,#424242) var(--vscode-editor-background,#1e1e1e);&quot;&gt;&lt;span&gt;&amp;nbsp;&lt;/span&gt;questions)&lt;/span&gt;&lt;span style=&quot;scrollbar-color: var(--vscode-scrollbarSlider-background,#424242) var(--vscode-editor-background,#1e1e1e);&quot;&gt;, so it&lt;/span&gt;&lt;span style=&quot;scrollbar-color: var(--vscode-scrollbarSlider-background,#424242) var(--vscode-editor-background,#1e1e1e);&quot;&gt;&lt;span&gt;&amp;nbsp;&lt;/span&gt;calls&lt;/span&gt;&lt;span style=&quot;scrollbar-color: var(--vscode-scrollbarSlider-background,#424242) var(--vscode-editor-background,#1e1e1e);&quot;&gt;:&lt;/span&gt;&lt;/section&gt;" style="rounded=0;whiteSpace=wrap;html=1;" vertex="1" parent="1">
                    <mxGeometry x="100" y="440" width="610" height="190" as="geometry"/>
                </mxCell>
                <mxCell id="5" value="&lt;meta charset=&quot;utf-8&quot;&gt;&lt;h4 style=&quot;scrollbar-color: var(--vscode-scrollbarSlider-background,#424242) var(--vscode-editor-background,#1e1e1e); font-size: 1.05em; line-height: 1.25; margin-bottom: 8px; margin-top: 16px; color: rgb(216, 222, 233); font-family: -apple-system, &amp;quot;system-ui&amp;quot;, sans-serif; font-style: normal; font-variant-ligatures: normal; font-variant-caps: normal; letter-spacing: normal; orphans: 2; text-align: start; text-indent: 0px; text-transform: none; widows: 2; word-spacing: 0px; -webkit-text-stroke-width: 0px; background-color: rgb(20, 20, 20); text-decoration-thickness: initial; text-decoration-style: initial; text-decoration-color: initial;&quot;&gt;&lt;span style=&quot;scrollbar-color: var(--vscode-scrollbarSlider-background,#424242) var(--vscode-editor-background,#1e1e1e); font-weight: 600;&quot; class=&quot;markdown-bold-text&quot;&gt;&lt;span style=&quot;scrollbar-color: var(--vscode-scrollbarSlider-background,#424242) var(--vscode-editor-background,#1e1e1e);&quot;&gt;3. Generate&lt;/span&gt;&lt;span style=&quot;scrollbar-color: var(--vscode-scrollbarSlider-background,#424242) var(--vscode-editor-background,#1e1e1e);&quot;&gt;&lt;span&gt;&amp;nbsp;&lt;/span&gt;Two Unique&lt;/span&gt;&lt;span style=&quot;scrollbar-color: var(--vscode-scrollbarSlider-background,#424242) var(--vscode-editor-background,#1e1e1e);&quot;&gt;&lt;span&gt;&amp;nbsp;&lt;/span&gt;Blocks for New User&lt;/span&gt;&lt;/span&gt;&lt;/h4&gt;&lt;ul style=&quot;scrollbar-color: var(--vscode-scrollbarSlider-background,#424242) var(--vscode-editor-background,#1e1e1e); margin: 0px 0px 0px 16px; color: rgb(216, 222, 233); font-family: -apple-system, &amp;quot;system-ui&amp;quot;, sans-serif; font-size: 13px; font-style: normal; font-variant-ligatures: normal; font-variant-caps: normal; font-weight: 400; letter-spacing: normal; orphans: 2; text-align: start; text-indent: 0px; text-transform: none; widows: 2; word-spacing: 0px; -webkit-text-stroke-width: 0px; background-color: rgb(20, 20, 20); text-decoration-thickness: initial; text-decoration-style: initial; text-decoration-color: initial; padding: 0px;&quot;&gt;&lt;li style=&quot;scrollbar-color: var(--vscode-scrollbarSlider-background,#424242) var(--vscode-editor-background,#1e1e1e); margin-bottom: 2px !important; margin-top: 2px !important; margin-left: 0px; padding-top: 2px; padding-bottom: 2px; list-style-type: disc;&quot; data-indent=&quot;0&quot;&gt;&lt;span style=&quot;scrollbar-color: var(--vscode-scrollbarSlider-background,#424242) var(--vscode-editor-background,#1e1e1e); font-weight: 600;&quot; class=&quot;markdown-bold-text&quot;&gt;&lt;span style=&quot;scrollbar-color: var(--vscode-scrollbarSlider-background,#424242) var(--vscode-editor-background,#1e1e1e);&quot;&gt;Function&lt;/span&gt;&lt;span style=&quot;scrollbar-color: var(--vscode-scrollbarSlider-background,#424242) var(--vscode-editor-background,#1e1e1e);&quot;&gt;:&lt;/span&gt;&lt;/span&gt;&lt;span style=&quot;scrollbar-color: var(--vscode-scrollbarSlider-background,#424242) var(--vscode-editor-background,#1e1e1e);&quot;&gt;&lt;span&gt;&amp;nbsp;&lt;/span&gt;&lt;/span&gt;&lt;span style=&quot;scrollbar-color: var(--vscode-scrollbarSlider-background,#424242) var(--vscode-editor-background,#1e1e1e); line-height: 1.4; background-color: var(--vscode-textCodeBlock-background); border-radius: 4px; color: var(--vscode-textLink-foreground); font-family: Menlo, Monaco, &amp;quot;Courier New&amp;quot;, monospace, Menlo, Monaco, &amp;quot;Courier New&amp;quot;, monospace; font-size: 0.9em; padding: 1.5px 3px; transition: 0.1s; border-color: var(--vscode-textLink-foreground); word-break: break-all; cursor: pointer;&quot; class=&quot;markdown-inline-code leading-[1.4]&quot;&gt;&lt;span style=&quot;scrollbar-color: var(--vscode-scrollbarSlider-background,#424242) var(--vscode-editor-background,#1e1e1e);&quot;&gt;_generate_blocks_for_new_user&lt;/span&gt;&lt;/span&gt;&lt;span style=&quot;scrollbar-color: var(--vscode-scrollbarSlider-background,#424242) var(--vscode-editor-background,#1e1e1e);&quot;&gt;&lt;span&gt;&amp;nbsp;&lt;/span&gt;(&lt;/span&gt;&lt;span style=&quot;scrollbar-color: var(--vscode-scrollbarSlider-background,#424242) var(--vscode-editor-background,#1e1e1e); line-height: 1.4; background-color: var(--vscode-textCodeBlock-background); border-radius: 4px; color: var(--vscode-textLink-foreground); font-family: Menlo, Monaco, &amp;quot;Courier New&amp;quot;, monospace, Menlo, Monaco, &amp;quot;Courier New&amp;quot;, monospace; font-size: 0.9em; padding: 1.5px 3px; transition: 0.1s; border-color: var(--vscode-textLink-foreground); word-break: break-all; cursor: pointer;&quot; class=&quot;markdown-inline-code leading-[1.4]&quot;&gt;&lt;span style=&quot;scrollbar-color: var(--vscode-scrollbarSlider-background,#424242) var(--vscode-editor-background,#1e1e1e);&quot;&gt;helpers/exercise_helpers.py&lt;/span&gt;&lt;/span&gt;&lt;span style=&quot;scrollbar-color: var(--vscode-scrollbarSlider-background,#424242) var(--vscode-editor-background,#1e1e1e);&quot;&gt;)&lt;/span&gt;&lt;/li&gt;&lt;/ul&gt;&lt;ul style=&quot;scrollbar-color: var(--vscode-scrollbarSlider-background,#424242) var(--vscode-editor-background,#1e1e1e); color: rgb(216, 222, 233); font-family: -apple-system, &amp;quot;system-ui&amp;quot;, sans-serif; font-size: 13px; font-style: normal; font-variant-ligatures: normal; font-variant-caps: normal; font-weight: 400; letter-spacing: normal; orphans: 2; text-align: start; text-indent: 0px; text-transform: none; widows: 2; word-spacing: 0px; -webkit-text-stroke-width: 0px; background-color: rgb(20, 20, 20); text-decoration-thickness: initial; text-decoration-style: initial; text-decoration-color: initial; margin: 0px 0px 0px 16px; padding: 0px;&quot;&gt;&lt;li style=&quot;scrollbar-color: var(--vscode-scrollbarSlider-background,#424242) var(--vscode-editor-background,#1e1e1e); margin-bottom: 2px !important; margin-top: 2px !important; margin-left: 0px; padding-top: 2px; padding-bottom: 2px; list-style-type: disc;&quot; data-indent=&quot;0&quot;&gt;&lt;span style=&quot;scrollbar-color: var(--vscode-scrollbarSlider-background,#424242) var(--vscode-editor-background,#1e1e1e); font-weight: 600;&quot; class=&quot;markdown-bold-text&quot;&gt;&lt;span style=&quot;scrollbar-color: var(--vscode-scrollbarSlider-background,#424242) var(--vscode-editor-background,#1e1e1e);&quot;&gt;What happens:&lt;/span&gt;&lt;/span&gt;&lt;span style=&quot;scrollbar-color: var(--vscode-scrollbarSlider-background,#424242) var(--vscode-editor-background,#1e1e1e);&quot;&gt;&lt;/span&gt;&lt;/li&gt;&lt;/ul&gt;&lt;ul style=&quot;scrollbar-color: var(--vscode-scrollbarSlider-background,#424242) var(--vscode-editor-background,#1e1e1e); color: rgb(216, 222, 233); font-family: -apple-system, &amp;quot;system-ui&amp;quot;, sans-serif; font-size: 13px; font-style: normal; font-variant-ligatures: normal; font-variant-caps: normal; font-weight: 400; letter-spacing: normal; orphans: 2; text-align: start; text-indent: 0px; text-transform: none; widows: 2; word-spacing: 0px; -webkit-text-stroke-width: 0px; background-color: rgb(20, 20, 20); text-decoration-thickness: initial; text-decoration-style: initial; text-decoration-color: initial; margin: 0px 0px 0px 16px; padding: 0px;&quot; class=&quot;nested&quot;&gt;&lt;li style=&quot;scrollbar-color: var(--vscode-scrollbarSlider-background,#424242) var(--vscode-editor-background,#1e1e1e); margin-bottom: 2px !important; margin-top: 2px !important; margin-left: 16px; padding-top: 2px; padding-bottom: 2px; list-style-type: disc;&quot; class=&quot;nested&quot; data-indent=&quot;2&quot;&gt;&lt;span style=&quot;scrollbar-color: var(--vscode-scrollbarSlider-background,#424242) var(--vscode-editor-background,#1e1e1e); font-weight: 600;&quot; class=&quot;markdown-bold-text&quot;&gt;&lt;span style=&quot;scrollbar-color: var(--vscode-scrollbarSlider-background,#424242) var(--vscode-editor-background,#1e1e1e);&quot;&gt;a&lt;/span&gt;&lt;span style=&quot;scrollbar-color: var(--vscode-scrollbarSlider-background,#424242) var(--vscode-editor-background,#1e1e1e);&quot;&gt;.&lt;/span&gt;&lt;/span&gt;&lt;span style=&quot;scrollbar-color: var(--vscode-scrollbarSlider-background,#424242) var(--vscode-editor-background,#1e1e1e);&quot;&gt;&lt;span&gt;&amp;nbsp;&lt;/span&gt;Calls&lt;span&gt;&amp;nbsp;&lt;/span&gt;&lt;/span&gt;&lt;span style=&quot;scrollbar-color: var(--vscode-scrollbarSlider-background,#424242) var(--vscode-editor-background,#1e1e1e); line-height: 1.4; background-color: var(--vscode-textCodeBlock-background); border-radius: 4px; color: var(--vscode-textLink-foreground); font-family: Menlo, Monaco, &amp;quot;Courier New&amp;quot;, monospace, Menlo, Monaco, &amp;quot;Courier New&amp;quot;, monospace; font-size: 0.9em; padding: 1.5px 3px; transition: 0.1s; border-color: var(--vscode-textLink-foreground); word-break: break-all; cursor: pointer;&quot; class=&quot;markdown-inline-code leading-[1.4]&quot;&gt;&lt;span style=&quot;scrollbar-color: var(--vscode-scrollbarSlider-background,#424242) var(--vscode-editor-background,#1e1e1e);&quot;&gt;_create&lt;/span&gt;&lt;span style=&quot;scrollbar-color: var(--vscode-scrollbarSlider-background,#424242) var(--vscode-editor-background,#1e1e1e);&quot;&gt;_ai&lt;/span&gt;&lt;span style=&quot;scrollbar-color: var(--vscode-scrollbarSlider-background,#424242) var(--vscode-editor-background,#1e1e1e);&quot;&gt;_block&lt;/span&gt;&lt;/span&gt;&lt;span style=&quot;scrollbar-color: var(--vscode-scrollbarSlider-background,#424242) var(--vscode-editor-background,#1e1e1e);&quot;&gt;&lt;span&gt;&amp;nbsp;&lt;/span&gt;to&lt;/span&gt;&lt;span style=&quot;scrollbar-color: var(--vscode-scrollbarSlider-background,#424242) var(--vscode-editor-background,#1e1e1e);&quot;&gt;&lt;span&gt;&amp;nbsp;&lt;/span&gt;generate the&lt;/span&gt;&lt;span style=&quot;scrollbar-color: var(--vscode-scrollbarSlider-background,#424242) var(--vscode-editor-background,#1e1e1e);&quot;&gt;&lt;span&gt;&amp;nbsp;&lt;/span&gt;&lt;/span&gt;&lt;span style=&quot;scrollbar-color: var(--vscode-scrollbarSlider-background,#424242) var(--vscode-editor-background,#1e1e1e); font-weight: 600;&quot; class=&quot;markdown-bold-text&quot;&gt;&lt;span style=&quot;scrollbar-color: var(--vscode-scrollbarSlider-background,#424242) var(--vscode-editor-background,#1e1e1e);&quot;&gt;first exercise block&lt;/span&gt;&lt;/span&gt;&lt;span style=&quot;scrollbar-color: var(--vscode-scrollbarSlider-background,#424242) var(--vscode-editor-background,#1e1e1e);&quot;&gt;.&lt;/span&gt;&lt;/li&gt;&lt;/ul&gt;&lt;ul style=&quot;scrollbar-color: var(--vscode-scrollbarSlider-background,#424242) var(--vscode-editor-background,#1e1e1e); color: rgb(216, 222, 233); font-family: -apple-system, &amp;quot;system-ui&amp;quot;, sans-serif; font-size: 13px; font-style: normal; font-variant-ligatures: normal; font-variant-caps: normal; font-weight: 400; letter-spacing: normal; orphans: 2; text-align: start; text-indent: 0px; text-transform: none; widows: 2; word-spacing: 0px; -webkit-text-stroke-width: 0px; background-color: rgb(20, 20, 20); text-decoration-thickness: initial; text-decoration-style: initial; text-decoration-color: initial; margin: 0px 0px 0px 16px; padding: 0px;&quot; class=&quot;nested&quot;&gt;&lt;li style=&quot;scrollbar-color: var(--vscode-scrollbarSlider-background,#424242) var(--vscode-editor-background,#1e1e1e); margin-bottom: 2px !important; margin-top: 2px !important; margin-left: 16px; padding-top: 2px; padding-bottom: 2px; list-style-type: disc;&quot; class=&quot;nested&quot; data-indent=&quot;2&quot;&gt;&lt;span style=&quot;scrollbar-color: var(--vscode-scrollbarSlider-background,#424242) var(--vscode-editor-background,#1e1e1e); font-weight: 600;&quot; class=&quot;markdown-bold-text&quot;&gt;&lt;span style=&quot;scrollbar-color: var(--vscode-scrollbarSlider-background,#424242) var(--vscode-editor-background,#1e1e1e);&quot;&gt;b.&lt;/span&gt;&lt;/span&gt;&lt;span style=&quot;scrollbar-color: var(--vscode-scrollbarSlider-background,#424242) var(--vscode-editor-background,#1e1e1e);&quot;&gt;&lt;span&gt;&amp;nbsp;&lt;/span&gt;Updates&lt;span&gt;&amp;nbsp;&lt;/span&gt;&lt;/span&gt;&lt;span style=&quot;scrollbar-color: var(--vscode-scrollbarSlider-background,#424242) var(--vscode-editor-background,#1e1e1e); line-height: 1.4; background-color: var(--vscode-textCodeBlock-background); border-radius: 4px; color: var(--vscode-textLink-foreground); font-family: Menlo, Monaco, &amp;quot;Courier New&amp;quot;, monospace, Menlo, Monaco, &amp;quot;Courier New&amp;quot;, monospace; font-size: 0.9em; padding: 1.5px 3px; transition: 0.1s; border-color: var(--vscode-textLink-foreground); word-break: break-all; cursor: pointer;&quot; class=&quot;markdown-inline-code leading-[1.4]&quot;&gt;&lt;span style=&quot;scrollbar-color: var(--vscode-scrollbarSlider-background,#424242) var(--vscode-editor-background,#1e1e1e);&quot;&gt;exercise_history&lt;/span&gt;&lt;/span&gt;&lt;span style=&quot;scrollbar-color: var(--vscode-scrollbarSlider-background,#424242) var(--vscode-editor-background,#1e1e1e);&quot;&gt;&lt;span&gt;&amp;nbsp;&lt;/span&gt;with&lt;/span&gt;&lt;span style=&quot;scrollbar-color: var(--vscode-scrollbarSlider-background,#424242) var(--vscode-editor-background,#1e1e1e);&quot;&gt;&lt;span&gt;&amp;nbsp;&lt;/span&gt;the questions&lt;/span&gt;&lt;span style=&quot;scrollbar-color: var(--vscode-scrollbarSlider-background,#424242) var(--vscode-editor-background,#1e1e1e);&quot;&gt;&lt;span&gt;&amp;nbsp;&lt;/span&gt;from&lt;/span&gt;&lt;span style=&quot;scrollbar-color: var(--vscode-scrollbarSlider-background,#424242) var(--vscode-editor-background,#1e1e1e);&quot;&gt;&lt;span&gt;&amp;nbsp;&lt;/span&gt;this block.&lt;/span&gt;&lt;/li&gt;&lt;/ul&gt;&lt;ul style=&quot;scrollbar-color: var(--vscode-scrollbarSlider-background,#424242) var(--vscode-editor-background,#1e1e1e); color: rgb(216, 222, 233); font-family: -apple-system, &amp;quot;system-ui&amp;quot;, sans-serif; font-size: 13px; font-style: normal; font-variant-ligatures: normal; font-variant-caps: normal; font-weight: 400; letter-spacing: normal; orphans: 2; text-align: start; text-indent: 0px; text-transform: none; widows: 2; word-spacing: 0px; -webkit-text-stroke-width: 0px; background-color: rgb(20, 20, 20); text-decoration-thickness: initial; text-decoration-style: initial; text-decoration-color: initial; margin: 0px 0px 0px 16px; padding: 0px;&quot; class=&quot;nested&quot;&gt;&lt;li style=&quot;scrollbar-color: var(--vscode-scrollbarSlider-background,#424242) var(--vscode-editor-background,#1e1e1e); margin-bottom: 2px !important; margin-top: 2px !important; margin-left: 16px; padding-top: 2px; padding-bottom: 2px; list-style-type: disc;&quot; class=&quot;nested&quot; data-indent=&quot;2&quot;&gt;&lt;span style=&quot;scrollbar-color: var(--vscode-scrollbarSlider-background,#424242) var(--vscode-editor-background,#1e1e1e); font-weight: 600;&quot; class=&quot;markdown-bold-text&quot;&gt;&lt;span style=&quot;scrollbar-color: var(--vscode-scrollbarSlider-background,#424242) var(--vscode-editor-background,#1e1e1e);&quot;&gt;c.&lt;/span&gt;&lt;/span&gt;&lt;span style=&quot;scrollbar-color: var(--vscode-scrollbarSlider-background,#424242) var(--vscode-editor-background,#1e1e1e);&quot;&gt;&lt;span&gt;&amp;nbsp;&lt;/span&gt;Calls&lt;span&gt;&amp;nbsp;&lt;/span&gt;&lt;/span&gt;&lt;span style=&quot;scrollbar-color: var(--vscode-scrollbarSlider-background,#424242) var(--vscode-editor-background,#1e1e1e); line-height: 1.4; background-color: var(--vscode-textCodeBlock-background); border-radius: 4px; color: var(--vscode-textLink-foreground); font-family: Menlo, Monaco, &amp;quot;Courier New&amp;quot;, monospace, Menlo, Monaco, &amp;quot;Courier New&amp;quot;, monospace; font-size: 0.9em; padding: 1.5px 3px; transition: 0.1s; border-color: var(--vscode-textLink-foreground); word-break: break-all; cursor: pointer;&quot; class=&quot;markdown-inline-code leading-[1.4]&quot;&gt;&lt;span style=&quot;scrollbar-color: var(--vscode-scrollbarSlider-background,#424242) var(--vscode-editor-background,#1e1e1e);&quot;&gt;generate_new_ex&lt;/span&gt;&lt;span style=&quot;scrollbar-color: var(--vscode-scrollbarSlider-background,#424242) var(--vscode-editor-background,#1e1e1e);&quot;&gt;ercises&lt;/span&gt;&lt;/span&gt;&lt;span style=&quot;scrollbar-color: var(--vscode-scrollbarSlider-background,#424242) var(--vscode-editor-background,#1e1e1e);&quot;&gt;&lt;span&gt;&amp;nbsp;&lt;/span&gt;again&lt;/span&gt;&lt;span style=&quot;scrollbar-color: var(--vscode-scrollbarSlider-background,#424242) var(--vscode-editor-background,#1e1e1e);&quot;&gt;&lt;span&gt;&amp;nbsp;&lt;/span&gt;to generate&lt;/span&gt;&lt;span style=&quot;scrollbar-color: var(--vscode-scrollbarSlider-background,#424242) var(--vscode-editor-background,#1e1e1e);&quot;&gt;&lt;span&gt;&amp;nbsp;&lt;/span&gt;a&lt;/span&gt;&lt;span style=&quot;scrollbar-color: var(--vscode-scrollbarSlider-background,#424242) var(--vscode-editor-background,#1e1e1e);&quot;&gt;&lt;span&gt;&amp;nbsp;&lt;/span&gt;&lt;/span&gt;&lt;span style=&quot;scrollbar-color: var(--vscode-scrollbarSlider-background,#424242) var(--vscode-editor-background,#1e1e1e); font-weight: 600;&quot; class=&quot;markdown-bold-text&quot;&gt;&lt;span style=&quot;scrollbar-color: var(--vscode-scrollbarSlider-background,#424242) var(--vscode-editor-background,#1e1e1e);&quot;&gt;second, unique&lt;/span&gt;&lt;span style=&quot;scrollbar-color: var(--vscode-scrollbarSlider-background,#424242) var(--vscode-editor-background,#1e1e1e);&quot;&gt;&lt;span&gt;&amp;nbsp;&lt;/span&gt;block&lt;/span&gt;&lt;/span&gt;&lt;span style=&quot;scrollbar-color: var(--vscode-scrollbarSlider-background,#424242) var(--vscode-editor-background,#1e1e1e);&quot;&gt;&lt;span&gt;&amp;nbsp;&lt;/span&gt;&lt;/span&gt;&lt;span style=&quot;scrollbar-color: var(--vscode-scrollbarSlider-background,#424242) var(--vscode-editor-background,#1e1e1e);&quot;&gt;(avoiding&lt;/span&gt;&lt;span style=&quot;scrollbar-color: var(--vscode-scrollbarSlider-background,#424242) var(--vscode-editor-background,#1e1e1e);&quot;&gt;&lt;span&gt;&amp;nbsp;&lt;/span&gt;repeats&lt;/span&gt;&lt;span style=&quot;scrollbar-color: var(--vscode-scrollbarSlider-background,#424242) var(--vscode-editor-background,#1e1e1e);&quot;&gt;).&lt;/span&gt;&lt;/li&gt;&lt;/ul&gt;&lt;ul style=&quot;scrollbar-color: var(--vscode-scrollbarSlider-background,#424242) var(--vscode-editor-background,#1e1e1e); color: rgb(216, 222, 233); font-family: -apple-system, &amp;quot;system-ui&amp;quot;, sans-serif; font-size: 13px; font-style: normal; font-variant-ligatures: normal; font-variant-caps: normal; font-weight: 400; letter-spacing: normal; orphans: 2; text-align: start; text-indent: 0px; text-transform: none; widows: 2; word-spacing: 0px; -webkit-text-stroke-width: 0px; background-color: rgb(20, 20, 20); text-decoration-thickness: initial; text-decoration-style: initial; text-decoration-color: initial; margin: 0px 0px 0px 16px; padding: 0px;&quot; class=&quot;nested&quot;&gt;&lt;li style=&quot;scrollbar-color: var(--vscode-scrollbarSlider-background,#424242) var(--vscode-editor-background,#1e1e1e); margin-bottom: 2px !important; margin-top: 2px !important; margin-left: 16px; padding-top: 2px; padding-bottom: 2px; list-style-type: disc;&quot; class=&quot;nested&quot; data-indent=&quot;2&quot;&gt;&lt;span style=&quot;scrollbar-color: var(--vscode-scrollbarSlider-background,#424242) var(--vscode-editor-background,#1e1e1e); font-weight: 600;&quot; class=&quot;markdown-bold-text&quot;&gt;&lt;span style=&quot;scrollbar-color: var(--vscode-scrollbarSlider-background,#424242) var(--vscode-editor-background,#1e1e1e);&quot;&gt;d.&lt;/span&gt;&lt;/span&gt;&lt;span style=&quot;scrollbar-color: var(--vscode-scrollbarSlider-background,#424242) var(--vscode-editor-background,#1e1e1e);&quot;&gt;&lt;span&gt;&amp;nbsp;&lt;/span&gt;Now you have:&lt;/span&gt;&lt;/li&gt;&lt;/ul&gt;&lt;ul style=&quot;scrollbar-color: var(--vscode-scrollbarSlider-background,#424242) var(--vscode-editor-background,#1e1e1e); color: rgb(216, 222, 233); font-family: -apple-system, &amp;quot;system-ui&amp;quot;, sans-serif; font-size: 13px; font-style: normal; font-variant-ligatures: normal; font-variant-caps: normal; font-weight: 400; letter-spacing: normal; orphans: 2; text-align: start; text-indent: 0px; text-transform: none; widows: 2; word-spacing: 0px; -webkit-text-stroke-width: 0px; background-color: rgb(20, 20, 20); text-decoration-thickness: initial; text-decoration-style: initial; text-decoration-color: initial; margin: 0px 0px 0px 16px; padding: 0px;&quot; class=&quot;nested&quot;&gt;&lt;li style=&quot;scrollbar-color: var(--vscode-scrollbarSlider-background,#424242) var(--vscode-editor-background,#1e1e1e); margin-bottom: 2px !important; margin-top: 2px !important; margin-left: 32px; padding-top: 2px; padding-bottom: 2px; list-style-type: disc;&quot; class=&quot;nested&quot; data-indent=&quot;4&quot;&gt;&lt;span style=&quot;scrollbar-color: var(--vscode-scrollbarSlider-background,#424242) var(--vscode-editor-background,#1e1e1e); line-height: 1.4; background-color: var(--vscode-textCodeBlock-background); border-radius: 4px; color: var(--vscode-textLink-foreground); font-family: Menlo, Monaco, &amp;quot;Courier New&amp;quot;, monospace, Menlo, Monaco, &amp;quot;Courier New&amp;quot;, monospace; font-size: 0.9em; padding: 1.5px 3px; transition: 0.1s; border-color: var(--vscode-textLink-foreground); word-break: break-all; cursor: pointer;&quot; class=&quot;markdown-inline-code leading-[1.4]&quot;&gt;&lt;span style=&quot;scrollbar-color: var(--vscode-scrollbarSlider-background,#424242) var(--vscode-editor-background,#1e1e1e);&quot;&gt;ai_block&lt;/span&gt;&lt;/span&gt;&lt;span style=&quot;scrollbar-color: var(--vscode-scrollbarSlider-background,#424242) var(--vscode-editor-background,#1e1e1e);&quot;&gt;&lt;span&gt;&amp;nbsp;&lt;/span&gt;&lt;/span&gt;&lt;span style=&quot;scrollbar-color: var(--vscode-scrollbarSlider-background,#424242) var(--vscode-editor-background,#1e1e1e);&quot;&gt;(first block)&lt;/span&gt;&lt;/li&gt;&lt;/ul&gt;&lt;ul style=&quot;scrollbar-color: var(--vscode-scrollbarSlider-background,#424242) var(--vscode-editor-background,#1e1e1e); color: rgb(216, 222, 233); font-family: -apple-system, &amp;quot;system-ui&amp;quot;, sans-serif; font-size: 13px; font-style: normal; font-variant-ligatures: normal; font-variant-caps: normal; font-weight: 400; letter-spacing: normal; orphans: 2; text-align: start; text-indent: 0px; text-transform: none; widows: 2; word-spacing: 0px; -webkit-text-stroke-width: 0px; background-color: rgb(20, 20, 20); text-decoration-thickness: initial; text-decoration-style: initial; text-decoration-color: initial; margin: 0px 0px 0px 16px; padding: 0px;&quot; class=&quot;nested&quot;&gt;&lt;li style=&quot;scrollbar-color: var(--vscode-scrollbarSlider-background,#424242) var(--vscode-editor-background,#1e1e1e); margin-bottom: 2px !important; margin-top: 2px !important; margin-left: 32px; padding-top: 2px; padding-bottom: 2px; list-style-type: disc;&quot; class=&quot;nested&quot; data-indent=&quot;4&quot;&gt;&lt;span style=&quot;scrollbar-color: var(--vscode-scrollbarSlider-background,#424242) var(--vscode-editor-background,#1e1e1e); line-height: 1.4; background-color: var(--vscode-textCodeBlock-background); border-radius: 4px; color: var(--vscode-textLink-foreground); font-family: Menlo, Monaco, &amp;quot;Courier New&amp;quot;, monospace, Menlo, Monaco, &amp;quot;Courier New&amp;quot;, monospace; font-size: 0.9em; padding: 1.5px 3px; transition: 0.1s; border-color: var(--vscode-textLink-foreground); word-break: break-all; cursor: pointer;&quot; class=&quot;markdown-inline-code leading-[1.4]&quot;&gt;&lt;span style=&quot;scrollbar-color: var(--vscode-scrollbarSlider-background,#424242) var(--vscode-editor-background,#1e1e1e);&quot;&gt;next_block&lt;/span&gt;&lt;/span&gt;&lt;span style=&quot;scrollbar-color: var(--vscode-scrollbarSlider-background,#424242) var(--vscode-editor-background,#1e1e1e);&quot;&gt;&lt;span&gt;&amp;nbsp;&lt;/span&gt;(second block)&lt;/span&gt;&lt;/li&gt;&lt;/ul&gt;" style="rounded=0;whiteSpace=wrap;html=1;" vertex="1" parent="1">
                    <mxGeometry x="100" y="650" width="610" height="250" as="geometry"/>
                </mxCell>
                <mxCell id="6" value="&lt;meta charset=&quot;utf-8&quot;&gt;&lt;h4 style=&quot;scrollbar-color: var(--vscode-scrollbarSlider-background,#424242) var(--vscode-editor-background,#1e1e1e); font-size: 1.05em; line-height: 1.25; margin-bottom: 8px; margin-top: 16px; color: rgb(216, 222, 233); font-family: -apple-system, &amp;quot;system-ui&amp;quot;, sans-serif; font-style: normal; font-variant-ligatures: normal; font-variant-caps: normal; letter-spacing: normal; orphans: 2; text-align: start; text-indent: 0px; text-transform: none; widows: 2; word-spacing: 0px; -webkit-text-stroke-width: 0px; background-color: rgb(20, 20, 20); text-decoration-thickness: initial; text-decoration-style: initial; text-decoration-color: initial;&quot;&gt;&lt;span style=&quot;scrollbar-color: var(--vscode-scrollbarSlider-background,#424242) var(--vscode-editor-background,#1e1e1e); font-weight: 600;&quot; class=&quot;markdown-bold-text&quot;&gt;&lt;span style=&quot;scrollbar-color: var(--vscode-scrollbarSlider-background,#424242) var(--vscode-editor-background,#1e1e1e);&quot;&gt;4&lt;/span&gt;&lt;span style=&quot;scrollbar-color: var(--vscode-scrollbarSlider-background,#424242) var(--vscode-editor-background,#1e1e1e);&quot;&gt;. Store&lt;/span&gt;&lt;span style=&quot;scrollbar-color: var(--vscode-scrollbarSlider-background,#424242) var(--vscode-editor-background,#1e1e1e);&quot;&gt;&lt;span&gt;&amp;nbsp;&lt;/span&gt;Both Blocks&lt;/span&gt;&lt;span style=&quot;scrollbar-color: var(--vscode-scrollbarSlider-background,#424242) var(--vscode-editor-background,#1e1e1e);&quot;&gt;&lt;span&gt;&amp;nbsp;&lt;/span&gt;in&lt;/span&gt;&lt;span style=&quot;scrollbar-color: var(--vscode-scrollbarSlider-background,#424242) var(--vscode-editor-background,#1e1e1e);&quot;&gt;&lt;span&gt;&amp;nbsp;&lt;/span&gt;Database&lt;/span&gt;&lt;/span&gt;&lt;/h4&gt;&lt;ul style=&quot;scrollbar-color: var(--vscode-scrollbarSlider-background,#424242) var(--vscode-editor-background,#1e1e1e); margin: 0px 0px 0px 16px; color: rgb(216, 222, 233); font-family: -apple-system, &amp;quot;system-ui&amp;quot;, sans-serif; font-size: 13px; font-style: normal; font-variant-ligatures: normal; font-variant-caps: normal; font-weight: 400; letter-spacing: normal; orphans: 2; text-align: start; text-indent: 0px; text-transform: none; widows: 2; word-spacing: 0px; -webkit-text-stroke-width: 0px; background-color: rgb(20, 20, 20); text-decoration-thickness: initial; text-decoration-style: initial; text-decoration-color: initial; padding: 0px;&quot;&gt;&lt;li style=&quot;scrollbar-color: var(--vscode-scrollbarSlider-background,#424242) var(--vscode-editor-background,#1e1e1e); margin-bottom: 2px !important; margin-top: 2px !important; margin-left: 0px; padding-top: 2px; padding-bottom: 2px; list-style-type: disc;&quot; data-indent=&quot;0&quot;&gt;&lt;span style=&quot;scrollbar-color: var(--vscode-scrollbarSlider-background,#424242) var(--vscode-editor-background,#1e1e1e); font-weight: 600;&quot; class=&quot;markdown-bold-text&quot;&gt;&lt;span style=&quot;scrollbar-color: var(--vscode-scrollbarSlider-background,#424242) var(--vscode-editor-background,#1e1e1e);&quot;&gt;Function:&lt;/span&gt;&lt;/span&gt;&lt;span style=&quot;scrollbar-color: var(--vscode-scrollbarSlider-background,#424242) var(--vscode-editor-background,#1e1e1e);&quot;&gt;&lt;span&gt;&amp;nbsp;&lt;/span&gt;&lt;/span&gt;&lt;span style=&quot;scrollbar-color: var(--vscode-scrollbarSlider-background,#424242) var(--vscode-editor-background,#1e1e1e); line-height: 1.4; background-color: var(--vscode-textCodeBlock-background); border-radius: 4px; color: var(--vscode-textLink-foreground); font-family: Menlo, Monaco, &amp;quot;Courier New&amp;quot;, monospace, Menlo, Monaco, &amp;quot;Courier New&amp;quot;, monospace; font-size: 0.9em; padding: 1.5px 3px; transition: 0.1s; border-color: var(--vscode-textLink-foreground); word-break: break-all; cursor: pointer;&quot; class=&quot;markdown-inline-code leading-[1.4]&quot;&gt;&lt;span style=&quot;scrollbar-color: var(--vscode-scrollbarSlider-background,#424242) var(--vscode-editor-background,#1e1e1e);&quot;&gt;store_user&lt;/span&gt;&lt;span style=&quot;scrollbar-color: var(--vscode-scrollbarSlider-background,#424242) var(--vscode-editor-background,#1e1e1e);&quot;&gt;_ai_data&lt;/span&gt;&lt;/span&gt;&lt;span style=&quot;scrollbar-color: var(--vscode-scrollbarSlider-background,#424242) var(--vscode-editor-background,#1e1e1e);&quot;&gt;&lt;span&gt;&amp;nbsp;&lt;/span&gt;(&lt;/span&gt;&lt;span style=&quot;scrollbar-color: var(--vscode-scrollbarSlider-background,#424242) var(--vscode-editor-background,#1e1e1e); line-height: 1.4; background-color: var(--vscode-textCodeBlock-background); border-radius: 4px; color: var(--vscode-textLink-foreground); font-family: Menlo, Monaco, &amp;quot;Courier New&amp;quot;, monospace, Menlo, Monaco, &amp;quot;Courier New&amp;quot;, monospace; font-size: 0.9em; padding: 1.5px 3px; transition: 0.1s; border-color: var(--vscode-textLink-foreground); word-break: break-all; cursor: pointer;&quot; class=&quot;markdown-inline-code leading-[1.4]&quot;&gt;&lt;span style=&quot;scrollbar-color: var(--vscode-scrollbarSlider-background,#424242) var(--vscode-editor-background,#1e1e1e);&quot;&gt;helpers/ex&lt;/span&gt;&lt;span style=&quot;scrollbar-color: var(--vscode-scrollbarSlider-background,#424242) var(--vscode-editor-background,#1e1e1e);&quot;&gt;ercise_helpers.py&lt;/span&gt;&lt;/span&gt;&lt;span style=&quot;scrollbar-color: var(--vscode-scrollbarSlider-background,#424242) var(--vscode-editor-background,#1e1e1e);&quot;&gt;)&lt;/span&gt;&lt;/li&gt;&lt;/ul&gt;&lt;ul style=&quot;scrollbar-color: var(--vscode-scrollbarSlider-background,#424242) var(--vscode-editor-background,#1e1e1e); color: rgb(216, 222, 233); font-family: -apple-system, &amp;quot;system-ui&amp;quot;, sans-serif; font-size: 13px; font-style: normal; font-variant-ligatures: normal; font-variant-caps: normal; font-weight: 400; letter-spacing: normal; orphans: 2; text-align: start; text-indent: 0px; text-transform: none; widows: 2; word-spacing: 0px; -webkit-text-stroke-width: 0px; background-color: rgb(20, 20, 20); text-decoration-thickness: initial; text-decoration-style: initial; text-decoration-color: initial; margin: 0px 0px 0px 16px; padding: 0px;&quot;&gt;&lt;li style=&quot;scrollbar-color: var(--vscode-scrollbarSlider-background,#424242) var(--vscode-editor-background,#1e1e1e); margin-bottom: 2px !important; margin-top: 2px !important; margin-left: 0px; padding-top: 2px; padding-bottom: 2px; list-style-type: disc;&quot; data-indent=&quot;0&quot;&gt;&lt;span style=&quot;scrollbar-color: var(--vscode-scrollbarSlider-background,#424242) var(--vscode-editor-background,#1e1e1e); font-weight: 600;&quot; class=&quot;markdown-bold-text&quot;&gt;&lt;span style=&quot;scrollbar-color: var(--vscode-scrollbarSlider-background,#424242) var(--vscode-editor-background,#1e1e1e);&quot;&gt;What happens:&lt;/span&gt;&lt;/span&gt;&lt;span style=&quot;scrollbar-color: var(--vscode-scrollbarSlider-background,#424242) var(--vscode-editor-background,#1e1e1e);&quot;&gt;&lt;/span&gt;&lt;/li&gt;&lt;/ul&gt;&lt;ul style=&quot;scrollbar-color: var(--vscode-scrollbarSlider-background,#424242) var(--vscode-editor-background,#1e1e1e); color: rgb(216, 222, 233); font-family: -apple-system, &amp;quot;system-ui&amp;quot;, sans-serif; font-size: 13px; font-style: normal; font-variant-ligatures: normal; font-variant-caps: normal; font-weight: 400; letter-spacing: normal; orphans: 2; text-align: start; text-indent: 0px; text-transform: none; widows: 2; word-spacing: 0px; -webkit-text-stroke-width: 0px; background-color: rgb(20, 20, 20); text-decoration-thickness: initial; text-decoration-style: initial; text-decoration-color: initial; margin: 0px 0px 0px 16px; padding: 0px;&quot; class=&quot;nested&quot;&gt;&lt;li style=&quot;scrollbar-color: var(--vscode-scrollbarSlider-background,#424242) var(--vscode-editor-background,#1e1e1e); margin-bottom: 2px !important; margin-top: 2px !important; margin-left: 16px; padding-top: 2px; padding-bottom: 2px; list-style-type: disc;&quot; class=&quot;nested&quot; data-indent=&quot;2&quot;&gt;&lt;span style=&quot;scrollbar-color: var(--vscode-scrollbarSlider-background,#424242) var(--vscode-editor-background,#1e1e1e);&quot;&gt;Saves&lt;/span&gt;&lt;span style=&quot;scrollbar-color: var(--vscode-scrollbarSlider-background,#424242) var(--vscode-editor-background,#1e1e1e);&quot;&gt;:&lt;/span&gt;&lt;/li&gt;&lt;/ul&gt;&lt;ul style=&quot;scrollbar-color: var(--vscode-scrollbarSlider-background,#424242) var(--vscode-editor-background,#1e1e1e); color: rgb(216, 222, 233); font-family: -apple-system, &amp;quot;system-ui&amp;quot;, sans-serif; font-size: 13px; font-style: normal; font-variant-ligatures: normal; font-variant-caps: normal; font-weight: 400; letter-spacing: normal; orphans: 2; text-align: start; text-indent: 0px; text-transform: none; widows: 2; word-spacing: 0px; -webkit-text-stroke-width: 0px; background-color: rgb(20, 20, 20); text-decoration-thickness: initial; text-decoration-style: initial; text-decoration-color: initial; margin: 0px 0px 0px 16px; padding: 0px;&quot; class=&quot;nested&quot;&gt;&lt;li style=&quot;scrollbar-color: var(--vscode-scrollbarSlider-background,#424242) var(--vscode-editor-background,#1e1e1e); margin-bottom: 2px !important; margin-top: 2px !important; margin-left: 32px; padding-top: 2px; padding-bottom: 2px; list-style-type: disc;&quot; class=&quot;nested&quot; data-indent=&quot;4&quot;&gt;&lt;span style=&quot;scrollbar-color: var(--vscode-scrollbarSlider-background,#424242) var(--vscode-editor-background,#1e1e1e); line-height: 1.4; background-color: var(--vscode-textCodeBlock-background); border-radius: 4px; color: var(--vscode-textLink-foreground); font-family: Menlo, Monaco, &amp;quot;Courier New&amp;quot;, monospace, Menlo, Monaco, &amp;quot;Courier New&amp;quot;, monospace; font-size: 0.9em; padding: 1.5px 3px; transition: 0.1s; border-color: var(--vscode-textLink-foreground); word-break: break-all; cursor: pointer;&quot; class=&quot;markdown-inline-code leading-[1.4]&quot;&gt;&lt;span style=&quot;scrollbar-color: var(--vscode-scrollbarSlider-background,#424242) var(--vscode-editor-background,#1e1e1e);&quot;&gt;exercises&lt;/span&gt;&lt;/span&gt;&lt;span style=&quot;scrollbar-color: var(--vscode-scrollbarSlider-background,#424242) var(--vscode-editor-background,#1e1e1e);&quot;&gt;&lt;span&gt;&amp;nbsp;&lt;/span&gt;= first&lt;/span&gt;&lt;span style=&quot;scrollbar-color: var(--vscode-scrollbarSlider-background,#424242) var(--vscode-editor-background,#1e1e1e);&quot;&gt;&lt;span&gt;&amp;nbsp;&lt;/span&gt;block&lt;/span&gt;&lt;span style=&quot;scrollbar-color: var(--vscode-scrollbarSlider-background,#424242) var(--vscode-editor-background,#1e1e1e);&quot;&gt;&lt;span&gt;&amp;nbsp;&lt;/span&gt;(&lt;/span&gt;&lt;span style=&quot;scrollbar-color: var(--vscode-scrollbarSlider-background,#424242) var(--vscode-editor-background,#1e1e1e); line-height: 1.4; background-color: var(--vscode-textCodeBlock-background); border-radius: 4px; color: var(--vscode-textLink-foreground); font-family: Menlo, Monaco, &amp;quot;Courier New&amp;quot;, monospace, Menlo, Monaco, &amp;quot;Courier New&amp;quot;, monospace; font-size: 0.9em; padding: 1.5px 3px; transition: 0.1s; border-color: var(--vscode-textLink-foreground); word-break: break-all; cursor: pointer;&quot; class=&quot;markdown-inline-code leading-[1.4]&quot;&gt;&lt;span style=&quot;scrollbar-color: var(--vscode-scrollbarSlider-background,#424242) var(--vscode-editor-background,#1e1e1e);&quot;&gt;ai_block&lt;/span&gt;&lt;/span&gt;&lt;span style=&quot;scrollbar-color: var(--vscode-scrollbarSlider-background,#424242) var(--vscode-editor-background,#1e1e1e);&quot;&gt;)&lt;/span&gt;&lt;/li&gt;&lt;/ul&gt;&lt;ul style=&quot;scrollbar-color: var(--vscode-scrollbarSlider-background,#424242) var(--vscode-editor-background,#1e1e1e); color: rgb(216, 222, 233); font-family: -apple-system, &amp;quot;system-ui&amp;quot;, sans-serif; font-size: 13px; font-style: normal; font-variant-ligatures: normal; font-variant-caps: normal; font-weight: 400; letter-spacing: normal; orphans: 2; text-align: start; text-indent: 0px; text-transform: none; widows: 2; word-spacing: 0px; -webkit-text-stroke-width: 0px; background-color: rgb(20, 20, 20); text-decoration-thickness: initial; text-decoration-style: initial; text-decoration-color: initial; margin: 0px 0px 0px 16px; padding: 0px;&quot; class=&quot;nested&quot;&gt;&lt;li style=&quot;scrollbar-color: var(--vscode-scrollbarSlider-background,#424242) var(--vscode-editor-background,#1e1e1e); margin-bottom: 2px !important; margin-top: 2px !important; margin-left: 32px; padding-top: 2px; padding-bottom: 2px; list-style-type: disc;&quot; class=&quot;nested&quot; data-indent=&quot;4&quot;&gt;&lt;span style=&quot;scrollbar-color: var(--vscode-scrollbarSlider-background,#424242) var(--vscode-editor-background,#1e1e1e); line-height: 1.4; background-color: var(--vscode-textCodeBlock-background); border-radius: 4px; color: var(--vscode-textLink-foreground); font-family: Menlo, Monaco, &amp;quot;Courier New&amp;quot;, monospace, Menlo, Monaco, &amp;quot;Courier New&amp;quot;, monospace; font-size: 0.9em; padding: 1.5px 3px; transition: 0.1s; border-color: var(--vscode-textLink-foreground); word-break: break-all; cursor: pointer;&quot; class=&quot;markdown-inline-code leading-[1.4]&quot;&gt;&lt;span style=&quot;scrollbar-color: var(--vscode-scrollbarSlider-background,#424242) var(--vscode-editor-background,#1e1e1e);&quot;&gt;next_ex&lt;/span&gt;&lt;span style=&quot;scrollbar-color: var(--vscode-scrollbarSlider-background,#424242) var(--vscode-editor-background,#1e1e1e);&quot;&gt;ercises&lt;/span&gt;&lt;/span&gt;&lt;span style=&quot;scrollbar-color: var(--vscode-scrollbarSlider-background,#424242) var(--vscode-editor-background,#1e1e1e);&quot;&gt;&lt;span&gt;&amp;nbsp;&lt;/span&gt;= second&lt;/span&gt;&lt;span style=&quot;scrollbar-color: var(--vscode-scrollbarSlider-background,#424242) var(--vscode-editor-background,#1e1e1e);&quot;&gt;&lt;span&gt;&amp;nbsp;&lt;/span&gt;block&lt;/span&gt;&lt;span style=&quot;scrollbar-color: var(--vscode-scrollbarSlider-background,#424242) var(--vscode-editor-background,#1e1e1e);&quot;&gt;&lt;span&gt;&amp;nbsp;&lt;/span&gt;(&lt;/span&gt;&lt;span style=&quot;scrollbar-color: var(--vscode-scrollbarSlider-background,#424242) var(--vscode-editor-background,#1e1e1e); line-height: 1.4; background-color: var(--vscode-textCodeBlock-background); border-radius: 4px; color: var(--vscode-textLink-foreground); font-family: Menlo, Monaco, &amp;quot;Courier New&amp;quot;, monospace, Menlo, Monaco, &amp;quot;Courier New&amp;quot;, monospace; font-size: 0.9em; padding: 1.5px 3px; transition: 0.1s; border-color: var(--vscode-textLink-foreground); word-break: break-all; cursor: pointer;&quot; class=&quot;markdown-inline-code leading-[1.4]&quot;&gt;&lt;span style=&quot;scrollbar-color: var(--vscode-scrollbarSlider-background,#424242) var(--vscode-editor-background,#1e1e1e);&quot;&gt;next_block&lt;/span&gt;&lt;/span&gt;&lt;span style=&quot;scrollbar-color: var(--vscode-scrollbarSlider-background,#424242) var(--vscode-editor-background,#1e1e1e);&quot;&gt;)&lt;/span&gt;&lt;/li&gt;&lt;/ul&gt;&lt;ul style=&quot;scrollbar-color: var(--vscode-scrollbarSlider-background,#424242) var(--vscode-editor-background,#1e1e1e); color: rgb(216, 222, 233); font-family: -apple-system, &amp;quot;system-ui&amp;quot;, sans-serif; font-size: 13px; font-style: normal; font-variant-ligatures: normal; font-variant-caps: normal; font-weight: 400; letter-spacing: normal; orphans: 2; text-align: start; text-indent: 0px; text-transform: none; widows: 2; word-spacing: 0px; -webkit-text-stroke-width: 0px; background-color: rgb(20, 20, 20); text-decoration-thickness: initial; text-decoration-style: initial; text-decoration-color: initial; margin: 0px 0px 0px 16px; padding: 0px;&quot; class=&quot;nested&quot;&gt;&lt;li style=&quot;scrollbar-color: var(--vscode-scrollbarSlider-background,#424242) var(--vscode-editor-background,#1e1e1e); margin-bottom: 2px !important; margin-top: 2px !important; margin-left: 32px; padding-top: 2px; padding-bottom: 2px; list-style-type: disc;&quot; class=&quot;nested&quot; data-indent=&quot;4&quot;&gt;&lt;span style=&quot;scrollbar-color: var(--vscode-scrollbarSlider-background,#424242) var(--vscode-editor-background,#1e1e1e); line-height: 1.4; background-color: var(--vscode-textCodeBlock-background); border-radius: 4px; color: var(--vscode-textLink-foreground); font-family: Menlo, Monaco, &amp;quot;Courier New&amp;quot;, monospace, Menlo, Monaco, &amp;quot;Courier New&amp;quot;, monospace; font-size: 0.9em; padding: 1.5px 3px; transition: 0.1s; border-color: var(--vscode-textLink-foreground); word-break: break-all; cursor: pointer;&quot; class=&quot;markdown-inline-code leading-[1.4]&quot;&gt;&lt;span style=&quot;scrollbar-color: var(--vscode-scrollbarSlider-background,#424242) var(--vscode-editor-background,#1e1e1e);&quot;&gt;exercise&lt;/span&gt;&lt;span style=&quot;scrollbar-color: var(--vscode-scrollbarSlider-background,#424242) var(--vscode-editor-background,#1e1e1e);&quot;&gt;_history&lt;/span&gt;&lt;/span&gt;&lt;span style=&quot;scrollbar-color: var(--vscode-scrollbarSlider-background,#424242) var(--vscode-editor-background,#1e1e1e);&quot;&gt;&lt;span&gt;&amp;nbsp;&lt;/span&gt;&lt;/span&gt;&lt;span style=&quot;scrollbar-color: var(--vscode-scrollbarSlider-background,#424242) var(--vscode-editor-background,#1e1e1e);&quot;&gt;= list&lt;/span&gt;&lt;span style=&quot;scrollbar-color: var(--vscode-scrollbarSlider-background,#424242) var(--vscode-editor-background,#1e1e1e);&quot;&gt;&lt;span&gt;&amp;nbsp;&lt;/span&gt;of questions seen&lt;/span&gt;&lt;span style=&quot;scrollbar-color: var(--vscode-scrollbarSlider-background,#424242) var(--vscode-editor-background,#1e1e1e);&quot;&gt;&lt;span&gt;&amp;nbsp;&lt;/span&gt;so&lt;/span&gt;&lt;span style=&quot;scrollbar-color: var(--vscode-scrollbarSlider-background,#424242) var(--vscode-editor-background,#1e1e1e);&quot;&gt;&lt;span&gt;&amp;nbsp;&lt;/span&gt;far&lt;/span&gt;&lt;/li&gt;&lt;/ul&gt;" style="rounded=0;whiteSpace=wrap;html=1;" vertex="1" parent="1">
                    <mxGeometry x="100" y="947" width="610" height="190" as="geometry"/>
                </mxCell>
                <mxCell id="7" value="&lt;meta charset=&quot;utf-8&quot;&gt;&lt;h4 style=&quot;scrollbar-color: var(--vscode-scrollbarSlider-background,#424242) var(--vscode-editor-background,#1e1e1e); font-size: 1.05em; line-height: 1.25; margin-bottom: 8px; margin-top: 16px; color: rgb(216, 222, 233); font-family: -apple-system, &amp;quot;system-ui&amp;quot;, sans-serif; font-style: normal; font-variant-ligatures: normal; font-variant-caps: normal; letter-spacing: normal; orphans: 2; text-align: start; text-indent: 0px; text-transform: none; widows: 2; word-spacing: 0px; -webkit-text-stroke-width: 0px; background-color: rgb(20, 20, 20); text-decoration-thickness: initial; text-decoration-style: initial; text-decoration-color: initial;&quot;&gt;&lt;span style=&quot;scrollbar-color: var(--vscode-scrollbarSlider-background,#424242) var(--vscode-editor-background,#1e1e1e); font-weight: 600;&quot; class=&quot;markdown-bold-text&quot;&gt;&lt;span style=&quot;scrollbar-color: var(--vscode-scrollbarSlider-background,#424242) var(--vscode-editor-background,#1e1e1e);&quot;&gt;5&lt;/span&gt;&lt;span style=&quot;scrollbar-color: var(--vscode-scrollbarSlider-background,#424242) var(--vscode-editor-background,#1e1e1e);&quot;&gt;. User Se&lt;/span&gt;&lt;span style=&quot;scrollbar-color: var(--vscode-scrollbarSlider-background,#424242) var(--vscode-editor-background,#1e1e1e);&quot;&gt;es&lt;/span&gt;&lt;span style=&quot;scrollbar-color: var(--vscode-scrollbarSlider-background,#424242) var(--vscode-editor-background,#1e1e1e);&quot;&gt;&lt;span&gt;&amp;nbsp;&lt;/span&gt;First Block&lt;/span&gt;&lt;span style=&quot;scrollbar-color: var(--vscode-scrollbarSlider-background,#424242) var(--vscode-editor-background,#1e1e1e);&quot;&gt;&lt;span&gt;&amp;nbsp;&lt;/span&gt;and&lt;/span&gt;&lt;span style=&quot;scrollbar-color: var(--vscode-scrollbarSlider-background,#424242) var(--vscode-editor-background,#1e1e1e);&quot;&gt;&lt;span&gt;&amp;nbsp;&lt;/span&gt;Sub&lt;/span&gt;&lt;span style=&quot;scrollbar-color: var(--vscode-scrollbarSlider-background,#424242) var(--vscode-editor-background,#1e1e1e);&quot;&gt;mits Answers&lt;/span&gt;&lt;/span&gt;&lt;/h4&gt;&lt;ul style=&quot;scrollbar-color: var(--vscode-scrollbarSlider-background,#424242) var(--vscode-editor-background,#1e1e1e); margin: 0px 0px 0px 16px; color: rgb(216, 222, 233); font-family: -apple-system, &amp;quot;system-ui&amp;quot;, sans-serif; font-size: 13px; font-style: normal; font-variant-ligatures: normal; font-variant-caps: normal; font-weight: 400; letter-spacing: normal; orphans: 2; text-align: start; text-indent: 0px; text-transform: none; widows: 2; word-spacing: 0px; -webkit-text-stroke-width: 0px; background-color: rgb(20, 20, 20); text-decoration-thickness: initial; text-decoration-style: initial; text-decoration-color: initial; padding: 0px;&quot;&gt;&lt;li style=&quot;scrollbar-color: var(--vscode-scrollbarSlider-background,#424242) var(--vscode-editor-background,#1e1e1e); margin-bottom: 2px !important; margin-top: 2px !important; margin-left: 0px; padding-top: 2px; padding-bottom: 2px; list-style-type: disc;&quot; data-indent=&quot;0&quot;&gt;&lt;span style=&quot;scrollbar-color: var(--vscode-scrollbarSlider-background,#424242) var(--vscode-editor-background,#1e1e1e); font-weight: 600;&quot; class=&quot;markdown-bold-text&quot;&gt;&lt;span style=&quot;scrollbar-color: var(--vscode-scrollbarSlider-background,#424242) var(--vscode-editor-background,#1e1e1e);&quot;&gt;Function:&lt;/span&gt;&lt;/span&gt;&lt;span style=&quot;scrollbar-color: var(--vscode-scrollbarSlider-background,#424242) var(--vscode-editor-background,#1e1e1e);&quot;&gt;&lt;span&gt;&amp;nbsp;&lt;/span&gt;&lt;/span&gt;&lt;span style=&quot;scrollbar-color: var(--vscode-scrollbarSlider-background,#424242) var(--vscode-editor-background,#1e1e1e); line-height: 1.4; background-color: var(--vscode-textCodeBlock-background); border-radius: 4px; color: var(--vscode-textLink-foreground); font-family: Menlo, Monaco, &amp;quot;Courier New&amp;quot;, monospace, Menlo, Monaco, &amp;quot;Courier New&amp;quot;, monospace; font-size: 0.9em; padding: 1.5px 3px; transition: 0.1s; border-color: var(--vscode-textLink-foreground); word-break: break-all; cursor: pointer;&quot; class=&quot;markdown-inline-code leading-[1.4]&quot;&gt;&lt;span style=&quot;scrollbar-color: var(--vscode-scrollbarSlider-background,#424242) var(--vscode-editor-background,#1e1e1e);&quot;&gt;submit_ai_exercise&lt;/span&gt;&lt;/span&gt;&lt;span style=&quot;scrollbar-color: var(--vscode-scrollbarSlider-background,#424242) var(--vscode-editor-background,#1e1e1e);&quot;&gt;&lt;span&gt;&amp;nbsp;&lt;/span&gt;(&lt;/span&gt;&lt;span style=&quot;scrollbar-color: var(--vscode-scrollbarSlider-background,#424242) var(--vscode-editor-background,#1e1e1e); line-height: 1.4; background-color: var(--vscode-textCodeBlock-background); border-radius: 4px; color: var(--vscode-textLink-foreground); font-family: Menlo, Monaco, &amp;quot;Courier New&amp;quot;, monospace, Menlo, Monaco, &amp;quot;Courier New&amp;quot;, monospace; font-size: 0.9em; padding: 1.5px 3px; transition: 0.1s; border-color: var(--vscode-textLink-foreground); word-break: break-all; cursor: pointer;&quot; class=&quot;markdown-inline-code leading-[1.4]&quot;&gt;&lt;span style=&quot;scrollbar-color: var(--vscode-scrollbarSlider-background,#424242) var(--vscode-editor-background,#1e1e1e);&quot;&gt;routes&lt;/span&gt;&lt;span style=&quot;scrollbar-color: var(--vscode-scrollbarSlider-background,#424242) var(--vscode-editor-background,#1e1e1e);&quot;&gt;/ai/exercise_routes.py&lt;/span&gt;&lt;/span&gt;&lt;span style=&quot;scrollbar-color: var(--vscode-scrollbarSlider-background,#424242) var(--vscode-editor-background,#1e1e1e);&quot;&gt;)&lt;/span&gt;&lt;/li&gt;&lt;/ul&gt;&lt;ul style=&quot;scrollbar-color: var(--vscode-scrollbarSlider-background,#424242) var(--vscode-editor-background,#1e1e1e); color: rgb(216, 222, 233); font-family: -apple-system, &amp;quot;system-ui&amp;quot;, sans-serif; font-size: 13px; font-style: normal; font-variant-ligatures: normal; font-variant-caps: normal; font-weight: 400; letter-spacing: normal; orphans: 2; text-align: start; text-indent: 0px; text-transform: none; widows: 2; word-spacing: 0px; -webkit-text-stroke-width: 0px; background-color: rgb(20, 20, 20); text-decoration-thickness: initial; text-decoration-style: initial; text-decoration-color: initial; margin: 0px 0px 0px 16px; padding: 0px;&quot;&gt;&lt;li style=&quot;scrollbar-color: var(--vscode-scrollbarSlider-background,#424242) var(--vscode-editor-background,#1e1e1e); margin-bottom: 2px !important; margin-top: 2px !important; margin-left: 0px; padding-top: 2px; padding-bottom: 2px; list-style-type: disc;&quot; data-indent=&quot;0&quot;&gt;&lt;span style=&quot;scrollbar-color: var(--vscode-scrollbarSlider-background,#424242) var(--vscode-editor-background,#1e1e1e); font-weight: 600;&quot; class=&quot;markdown-bold-text&quot;&gt;&lt;span style=&quot;scrollbar-color: var(--vscode-scrollbarSlider-background,#424242) var(--vscode-editor-background,#1e1e1e);&quot;&gt;What happens:&lt;/span&gt;&lt;/span&gt;&lt;span style=&quot;scrollbar-color: var(--vscode-scrollbarSlider-background,#424242) var(--vscode-editor-background,#1e1e1e);&quot;&gt;&lt;/span&gt;&lt;/li&gt;&lt;/ul&gt;&lt;ul style=&quot;scrollbar-color: var(--vscode-scrollbarSlider-background,#424242) var(--vscode-editor-background,#1e1e1e); color: rgb(216, 222, 233); font-family: -apple-system, &amp;quot;system-ui&amp;quot;, sans-serif; font-size: 13px; font-style: normal; font-variant-ligatures: normal; font-variant-caps: normal; font-weight: 400; letter-spacing: normal; orphans: 2; text-align: start; text-indent: 0px; text-transform: none; widows: 2; word-spacing: 0px; -webkit-text-stroke-width: 0px; background-color: rgb(20, 20, 20); text-decoration-thickness: initial; text-decoration-style: initial; text-decoration-color: initial; margin: 0px 0px 0px 16px; padding: 0px;&quot; class=&quot;nested&quot;&gt;&lt;li style=&quot;scrollbar-color: var(--vscode-scrollbarSlider-background,#424242) var(--vscode-editor-background,#1e1e1e); margin-bottom: 2px !important; margin-top: 2px !important; margin-left: 16px; padding-top: 2px; padding-bottom: 2px; list-style-type: disc;&quot; class=&quot;nested&quot; data-indent=&quot;2&quot;&gt;&lt;span style=&quot;scrollbar-color: var(--vscode-scrollbarSlider-background,#424242) var(--vscode-editor-background,#1e1e1e);&quot;&gt;User submits answers&lt;/span&gt;&lt;span style=&quot;scrollbar-color: var(--vscode-scrollbarSlider-background,#424242) var(--vscode-editor-background,#1e1e1e);&quot;&gt;&lt;span&gt;&amp;nbsp;&lt;/span&gt;for&lt;/span&gt;&lt;span style=&quot;scrollbar-color: var(--vscode-scrollbarSlider-background,#424242) var(--vscode-editor-background,#1e1e1e);&quot;&gt;&lt;span&gt;&amp;nbsp;&lt;/span&gt;the&lt;/span&gt;&lt;span style=&quot;scrollbar-color: var(--vscode-scrollbarSlider-background,#424242) var(--vscode-editor-background,#1e1e1e);&quot;&gt;&lt;span&gt;&amp;nbsp;&lt;/span&gt;current block&lt;/span&gt;&lt;span style=&quot;scrollbar-color: var(--vscode-scrollbarSlider-background,#424242) var(--vscode-editor-background,#1e1e1e);&quot;&gt;&lt;span&gt;&amp;nbsp;&lt;/span&gt;(&lt;/span&gt;&lt;span style=&quot;scrollbar-color: var(--vscode-scrollbarSlider-background,#424242) var(--vscode-editor-background,#1e1e1e); line-height: 1.4; background-color: var(--vscode-textCodeBlock-background); border-radius: 4px; color: var(--vscode-textLink-foreground); font-family: Menlo, Monaco, &amp;quot;Courier New&amp;quot;, monospace, Menlo, Monaco, &amp;quot;Courier New&amp;quot;, monospace; font-size: 0.9em; padding: 1.5px 3px; transition: 0.1s; border-color: var(--vscode-textLink-foreground); word-break: break-all; cursor: pointer;&quot; class=&quot;markdown-inline-code leading-[1.4]&quot;&gt;&lt;span style=&quot;scrollbar-color: var(--vscode-scrollbarSlider-background,#424242) var(--vscode-editor-background,#1e1e1e);&quot;&gt;ex&lt;/span&gt;&lt;span style=&quot;scrollbar-color: var(--vscode-scrollbarSlider-background,#424242) var(--vscode-editor-background,#1e1e1e);&quot;&gt;ercises&lt;/span&gt;&lt;/span&gt;&lt;span style=&quot;scrollbar-color: var(--vscode-scrollbarSlider-background,#424242) var(--vscode-editor-background,#1e1e1e);&quot;&gt;).&lt;/span&gt;&lt;/li&gt;&lt;/ul&gt;" style="rounded=0;whiteSpace=wrap;html=1;" vertex="1" parent="1">
                    <mxGeometry x="100" y="1157" width="610" height="190" as="geometry"/>
                </mxCell>
                <mxCell id="8" value="&lt;meta charset=&quot;utf-8&quot;&gt;&lt;h4 style=&quot;scrollbar-color: var(--vscode-scrollbarSlider-background,#424242) var(--vscode-editor-background,#1e1e1e); font-size: 1.05em; line-height: 1.25; margin-bottom: 8px; margin-top: 16px; color: rgb(216, 222, 233); font-family: -apple-system, &amp;quot;system-ui&amp;quot;, sans-serif; font-style: normal; font-variant-ligatures: normal; font-variant-caps: normal; letter-spacing: normal; orphans: 2; text-align: start; text-indent: 0px; text-transform: none; widows: 2; word-spacing: 0px; -webkit-text-stroke-width: 0px; background-color: rgb(20, 20, 20); text-decoration-thickness: initial; text-decoration-style: initial; text-decoration-color: initial;&quot;&gt;&lt;span style=&quot;scrollbar-color: var(--vscode-scrollbarSlider-background,#424242) var(--vscode-editor-background,#1e1e1e); font-weight: 600;&quot; class=&quot;markdown-bold-text&quot;&gt;&lt;span style=&quot;scrollbar-color: var(--vscode-scrollbarSlider-background,#424242) var(--vscode-editor-background,#1e1e1e);&quot;&gt;6&lt;/span&gt;&lt;span style=&quot;scrollbar-color: var(--vscode-scrollbarSlider-background,#424242) var(--vscode-editor-background,#1e1e1e);&quot;&gt;. Submission is&lt;/span&gt;&lt;span style=&quot;scrollbar-color: var(--vscode-scrollbarSlider-background,#424242) var(--vscode-editor-background,#1e1e1e);&quot;&gt;&lt;span&gt;&amp;nbsp;&lt;/span&gt;Parsed and&lt;/span&gt;&lt;span style=&quot;scrollbar-color: var(--vscode-scrollbarSlider-background,#424242) var(--vscode-editor-background,#1e1e1e);&quot;&gt;&lt;span&gt;&amp;nbsp;&lt;/span&gt;Evaluated&lt;/span&gt;&lt;/span&gt;&lt;/h4&gt;&lt;ul style=&quot;scrollbar-color: var(--vscode-scrollbarSlider-background,#424242) var(--vscode-editor-background,#1e1e1e); margin: 0px 0px 0px 16px; color: rgb(216, 222, 233); font-family: -apple-system, &amp;quot;system-ui&amp;quot;, sans-serif; font-size: 13px; font-style: normal; font-variant-ligatures: normal; font-variant-caps: normal; font-weight: 400; letter-spacing: normal; orphans: 2; text-align: start; text-indent: 0px; text-transform: none; widows: 2; word-spacing: 0px; -webkit-text-stroke-width: 0px; background-color: rgb(20, 20, 20); text-decoration-thickness: initial; text-decoration-style: initial; text-decoration-color: initial; padding: 0px;&quot;&gt;&lt;li style=&quot;scrollbar-color: var(--vscode-scrollbarSlider-background,#424242) var(--vscode-editor-background,#1e1e1e); margin-bottom: 2px !important; margin-top: 2px !important; margin-left: 0px; padding-top: 2px; padding-bottom: 2px; list-style-type: disc;&quot; data-indent=&quot;0&quot;&gt;&lt;span style=&quot;scrollbar-color: var(--vscode-scrollbarSlider-background,#424242) var(--vscode-editor-background,#1e1e1e); font-weight: 600;&quot; class=&quot;markdown-bold-text&quot;&gt;&lt;span style=&quot;scrollbar-color: var(--vscode-scrollbarSlider-background,#424242) var(--vscode-editor-background,#1e1e1e);&quot;&gt;Functions:&lt;/span&gt;&lt;/span&gt;&lt;span style=&quot;scrollbar-color: var(--vscode-scrollbarSlider-background,#424242) var(--vscode-editor-background,#1e1e1e);&quot;&gt;&lt;/span&gt;&lt;/li&gt;&lt;/ul&gt;&lt;ul style=&quot;scrollbar-color: var(--vscode-scrollbarSlider-background,#424242) var(--vscode-editor-background,#1e1e1e); color: rgb(216, 222, 233); font-family: -apple-system, &amp;quot;system-ui&amp;quot;, sans-serif; font-size: 13px; font-style: normal; font-variant-ligatures: normal; font-variant-caps: normal; font-weight: 400; letter-spacing: normal; orphans: 2; text-align: start; text-indent: 0px; text-transform: none; widows: 2; word-spacing: 0px; -webkit-text-stroke-width: 0px; background-color: rgb(20, 20, 20); text-decoration-thickness: initial; text-decoration-style: initial; text-decoration-color: initial; margin: 0px 0px 0px 16px; padding: 0px;&quot; class=&quot;nested&quot;&gt;&lt;li style=&quot;scrollbar-color: var(--vscode-scrollbarSlider-background,#424242) var(--vscode-editor-background,#1e1e1e); margin-bottom: 2px !important; margin-top: 2px !important; margin-left: 16px; padding-top: 2px; padding-bottom: 2px; list-style-type: disc;&quot; class=&quot;nested&quot; data-indent=&quot;2&quot;&gt;&lt;span style=&quot;scrollbar-color: var(--vscode-scrollbarSlider-background,#424242) var(--vscode-editor-background,#1e1e1e); line-height: 1.4; background-color: var(--vscode-textCodeBlock-background); border-radius: 4px; color: var(--vscode-textLink-foreground); font-family: Menlo, Monaco, &amp;quot;Courier New&amp;quot;, monospace, Menlo, Monaco, &amp;quot;Courier New&amp;quot;, monospace; font-size: 0.9em; padding: 1.5px 3px; transition: 0.1s; border-color: var(--vscode-textLink-foreground); word-break: break-all; cursor: pointer;&quot; class=&quot;markdown-inline-code leading-[1.4]&quot;&gt;&lt;span style=&quot;scrollbar-color: var(--vscode-scrollbarSlider-background,#424242) var(--vscode-editor-background,#1e1e1e);&quot;&gt;parse_submission_data&lt;/span&gt;&lt;/span&gt;&lt;span style=&quot;scrollbar-color: var(--vscode-scrollbarSlider-background,#424242) var(--vscode-editor-background,#1e1e1e);&quot;&gt;&lt;/span&gt;&lt;/li&gt;&lt;/ul&gt;&lt;ul style=&quot;scrollbar-color: var(--vscode-scrollbarSlider-background,#424242) var(--vscode-editor-background,#1e1e1e); color: rgb(216, 222, 233); font-family: -apple-system, &amp;quot;system-ui&amp;quot;, sans-serif; font-size: 13px; font-style: normal; font-variant-ligatures: normal; font-variant-caps: normal; font-weight: 400; letter-spacing: normal; orphans: 2; text-align: start; text-indent: 0px; text-transform: none; widows: 2; word-spacing: 0px; -webkit-text-stroke-width: 0px; background-color: rgb(20, 20, 20); text-decoration-thickness: initial; text-decoration-style: initial; text-decoration-color: initial; margin: 0px 0px 0px 16px; padding: 0px;&quot; class=&quot;nested&quot;&gt;&lt;li style=&quot;scrollbar-color: var(--vscode-scrollbarSlider-background,#424242) var(--vscode-editor-background,#1e1e1e); margin-bottom: 2px !important; margin-top: 2px !important; margin-left: 16px; padding-top: 2px; padding-bottom: 2px; list-style-type: disc;&quot; class=&quot;nested&quot; data-indent=&quot;2&quot;&gt;&lt;span style=&quot;scrollbar-color: var(--vscode-scrollbarSlider-background,#424242) var(--vscode-editor-background,#1e1e1e); line-height: 1.4; background-color: var(--vscode-textCodeBlock-background); border-radius: 4px; color: var(--vscode-textLink-foreground); font-family: Menlo, Monaco, &amp;quot;Courier New&amp;quot;, monospace, Menlo, Monaco, &amp;quot;Courier New&amp;quot;, monospace; font-size: 0.9em; padding: 1.5px 3px; transition: 0.1s; border-color: var(--vscode-textLink-foreground); word-break: break-all; cursor: pointer;&quot; class=&quot;markdown-inline-code leading-[1.4]&quot;&gt;&lt;span style=&quot;scrollbar-color: var(--vscode-scrollbarSlider-background,#424242) var(--vscode-editor-background,#1e1e1e);&quot;&gt;evaluate_exercises&lt;/span&gt;&lt;/span&gt;&lt;span style=&quot;scrollbar-color: var(--vscode-scrollbarSlider-background,#424242) var(--vscode-editor-background,#1e1e1e);&quot;&gt;&lt;/span&gt;&lt;/li&gt;&lt;/ul&gt;&lt;ul style=&quot;scrollbar-color: var(--vscode-scrollbarSlider-background,#424242) var(--vscode-editor-background,#1e1e1e); color: rgb(216, 222, 233); font-family: -apple-system, &amp;quot;system-ui&amp;quot;, sans-serif; font-size: 13px; font-style: normal; font-variant-ligatures: normal; font-variant-caps: normal; font-weight: 400; letter-spacing: normal; orphans: 2; text-align: start; text-indent: 0px; text-transform: none; widows: 2; word-spacing: 0px; -webkit-text-stroke-width: 0px; background-color: rgb(20, 20, 20); text-decoration-thickness: initial; text-decoration-style: initial; text-decoration-color: initial; margin: 0px 0px 0px 16px; padding: 0px;&quot; class=&quot;nested&quot;&gt;&lt;li style=&quot;scrollbar-color: var(--vscode-scrollbarSlider-background,#424242) var(--vscode-editor-background,#1e1e1e); margin-bottom: 2px !important; margin-top: 2px !important; margin-left: 16px; padding-top: 2px; padding-bottom: 2px; list-style-type: disc;&quot; class=&quot;nested&quot; data-indent=&quot;2&quot;&gt;&lt;span style=&quot;scrollbar-color: var(--vscode-scrollbarSlider-background,#424242) var(--vscode-editor-background,#1e1e1e); line-height: 1.4; background-color: var(--vscode-textCodeBlock-background); border-radius: 4px; color: var(--vscode-textLink-foreground); font-family: Menlo, Monaco, &amp;quot;Courier New&amp;quot;, monospace, Menlo, Monaco, &amp;quot;Courier New&amp;quot;, monospace; font-size: 0.9em; padding: 1.5px 3px; transition: 0.1s; border-color: var(--vscode-textLink-foreground); word-break: break-all; cursor: pointer;&quot; class=&quot;markdown-inline-code leading-[1.4]&quot;&gt;&lt;span style=&quot;scrollbar-color: var(--vscode-scrollbarSlider-background,#424242) var(--vscode-editor-background,#1e1e1e);&quot;&gt;process_ai&lt;/span&gt;&lt;span style=&quot;scrollbar-color: var(--vscode-scrollbarSlider-background,#424242) var(--vscode-editor-background,#1e1e1e);&quot;&gt;_answers&lt;/span&gt;&lt;/span&gt;&lt;span style=&quot;scrollbar-color: var(--vscode-scrollbarSlider-background,#424242) var(--vscode-editor-background,#1e1e1e);&quot;&gt;&lt;/span&gt;&lt;/li&gt;&lt;/ul&gt;&lt;ul style=&quot;scrollbar-color: var(--vscode-scrollbarSlider-background,#424242) var(--vscode-editor-background,#1e1e1e); color: rgb(216, 222, 233); font-family: -apple-system, &amp;quot;system-ui&amp;quot;, sans-serif; font-size: 13px; font-style: normal; font-variant-ligatures: normal; font-variant-caps: normal; font-weight: 400; letter-spacing: normal; orphans: 2; text-align: start; text-indent: 0px; text-transform: none; widows: 2; word-spacing: 0px; -webkit-text-stroke-width: 0px; background-color: rgb(20, 20, 20); text-decoration-thickness: initial; text-decoration-style: initial; text-decoration-color: initial; margin: 0px 0px 0px 16px; padding: 0px;&quot; class=&quot;nested&quot;&gt;&lt;li style=&quot;scrollbar-color: var(--vscode-scrollbarSlider-background,#424242) var(--vscode-editor-background,#1e1e1e); margin-bottom: 2px !important; margin-top: 2px !important; margin-left: 16px; padding-top: 2px; padding-bottom: 2px; list-style-type: disc;&quot; class=&quot;nested&quot; data-indent=&quot;2&quot;&gt;&lt;span style=&quot;scrollbar-color: var(--vscode-scrollbarSlider-background,#424242) var(--vscode-editor-background,#1e1e1e);&quot;&gt;All&lt;/span&gt;&lt;span style=&quot;scrollbar-color: var(--vscode-scrollbarSlider-background,#424242) var(--vscode-editor-background,#1e1e1e);&quot;&gt;&lt;span&gt;&amp;nbsp;&lt;/span&gt;in&lt;/span&gt;&lt;span style=&quot;scrollbar-color: var(--vscode-scrollbarSlider-background,#424242) var(--vscode-editor-background,#1e1e1e);&quot;&gt;&lt;span&gt;&amp;nbsp;&lt;/span&gt;helpers/ai_evaluation_helpers&lt;/span&gt;&lt;span style=&quot;scrollbar-color: var(--vscode-scrollbarSlider-background,#424242) var(--vscode-editor-background,#1e1e1e);&quot;&gt;.py&lt;/span&gt;&lt;span style=&quot;scrollbar-color: var(--vscode-scrollbarSlider-background,#424242) var(--vscode-editor-background,#1e1e1e);&quot;&gt;&lt;span&gt;&amp;nbsp;&lt;/span&gt;or helpers&lt;/span&gt;&lt;span style=&quot;scrollbar-color: var(--vscode-scrollbarSlider-background,#424242) var(--vscode-editor-background,#1e1e1e);&quot;&gt;/exercise_helpers&lt;/span&gt;&lt;span style=&quot;scrollbar-color: var(--vscode-scrollbarSlider-background,#424242) var(--vscode-editor-background,#1e1e1e);&quot;&gt;.py&lt;/span&gt;&lt;/li&gt;&lt;/ul&gt;" style="rounded=0;whiteSpace=wrap;html=1;" vertex="1" parent="1">
                    <mxGeometry x="100" y="1367" width="610" height="190" as="geometry"/>
                </mxCell>
                <mxCell id="9" value="&lt;meta charset=&quot;utf-8&quot;&gt;&lt;h4 style=&quot;scrollbar-color: var(--vscode-scrollbarSlider-background,#424242) var(--vscode-editor-background,#1e1e1e); font-size: 1.05em; line-height: 1.25; margin-bottom: 8px; margin-top: 16px; color: rgb(216, 222, 233); font-family: -apple-system, &amp;quot;system-ui&amp;quot;, sans-serif; font-style: normal; font-variant-ligatures: normal; font-variant-caps: normal; letter-spacing: normal; orphans: 2; text-align: start; text-indent: 0px; text-transform: none; widows: 2; word-spacing: 0px; -webkit-text-stroke-width: 0px; background-color: rgb(20, 20, 20); text-decoration-thickness: initial; text-decoration-style: initial; text-decoration-color: initial;&quot;&gt;&lt;span style=&quot;scrollbar-color: var(--vscode-scrollbarSlider-background,#424242) var(--vscode-editor-background,#1e1e1e); font-weight: 600;&quot; class=&quot;markdown-bold-text&quot;&gt;&lt;span style=&quot;scrollbar-color: var(--vscode-scrollbarSlider-background,#424242) var(--vscode-editor-background,#1e1e1e);&quot;&gt;7&lt;/span&gt;&lt;span style=&quot;scrollbar-color: var(--vscode-scrollbarSlider-background,#424242) var(--vscode-editor-background,#1e1e1e);&quot;&gt;. Save Submission and&lt;/span&gt;&lt;span style=&quot;scrollbar-color: var(--vscode-scrollbarSlider-background,#424242) var(--vscode-editor-background,#1e1e1e);&quot;&gt;&lt;span&gt;&amp;nbsp;&lt;/span&gt;Promote&lt;/span&gt;&lt;span style=&quot;scrollbar-color: var(--vscode-scrollbarSlider-background,#424242) var(--vscode-editor-background,#1e1e1e);&quot;&gt;&lt;span&gt;&amp;nbsp;&lt;/span&gt;Next Block&lt;/span&gt;&lt;/span&gt;&lt;/h4&gt;&lt;ul style=&quot;scrollbar-color: var(--vscode-scrollbarSlider-background,#424242) var(--vscode-editor-background,#1e1e1e); margin: 0px 0px 0px 16px; color: rgb(216, 222, 233); font-family: -apple-system, &amp;quot;system-ui&amp;quot;, sans-serif; font-size: 13px; font-style: normal; font-variant-ligatures: normal; font-variant-caps: normal; font-weight: 400; letter-spacing: normal; orphans: 2; text-align: start; text-indent: 0px; text-transform: none; widows: 2; word-spacing: 0px; -webkit-text-stroke-width: 0px; background-color: rgb(20, 20, 20); text-decoration-thickness: initial; text-decoration-style: initial; text-decoration-color: initial; padding: 0px;&quot;&gt;&lt;li style=&quot;scrollbar-color: var(--vscode-scrollbarSlider-background,#424242) var(--vscode-editor-background,#1e1e1e); margin-bottom: 2px !important; margin-top: 2px !important; margin-left: 0px; padding-top: 2px; padding-bottom: 2px; list-style-type: disc;&quot; data-indent=&quot;0&quot;&gt;&lt;span style=&quot;scrollbar-color: var(--vscode-scrollbarSlider-background,#424242) var(--vscode-editor-background,#1e1e1e); font-weight: 600;&quot; class=&quot;markdown-bold-text&quot;&gt;&lt;span style=&quot;scrollbar-color: var(--vscode-scrollbarSlider-background,#424242) var(--vscode-editor-background,#1e1e1e);&quot;&gt;Function:&lt;/span&gt;&lt;/span&gt;&lt;span style=&quot;scrollbar-color: var(--vscode-scrollbarSlider-background,#424242) var(--vscode-editor-background,#1e1e1e);&quot;&gt;&lt;span&gt;&amp;nbsp;&lt;/span&gt;&lt;/span&gt;&lt;span style=&quot;scrollbar-color: var(--vscode-scrollbarSlider-background,#424242) var(--vscode-editor-background,#1e1e1e); line-height: 1.4; background-color: var(--vscode-textCodeBlock-background); border-radius: 4px; color: var(--vscode-textLink-foreground); font-family: Menlo, Monaco, &amp;quot;Courier New&amp;quot;, monospace, Menlo, Monaco, &amp;quot;Courier New&amp;quot;, monospace; font-size: 0.9em; padding: 1.5px 3px; transition: 0.1s; border-color: var(--vscode-textLink-foreground); word-break: break-all; cursor: pointer;&quot; class=&quot;markdown-inline-code leading-[1.4]&quot;&gt;&lt;span style=&quot;scrollbar-color: var(--vscode-scrollbarSlider-background,#424242) var(--vscode-editor-background,#1e1e1e);&quot;&gt;save_exercise_submission_async&lt;/span&gt;&lt;/span&gt;&lt;span style=&quot;scrollbar-color: var(--vscode-scrollbarSlider-background,#424242) var(--vscode-editor-background,#1e1e1e);&quot;&gt;&lt;span&gt;&amp;nbsp;&lt;/span&gt;(&lt;/span&gt;&lt;span style=&quot;scrollbar-color: var(--vscode-scrollbarSlider-background,#424242) var(--vscode-editor-background,#1e1e1e); line-height: 1.4; background-color: var(--vscode-textCodeBlock-background); border-radius: 4px; color: var(--vscode-textLink-foreground); font-family: Menlo, Monaco, &amp;quot;Courier New&amp;quot;, monospace, Menlo, Monaco, &amp;quot;Courier New&amp;quot;, monospace; font-size: 0.9em; padding: 1.5px 3px; transition: 0.1s; border-color: var(--vscode-textLink-foreground); word-break: break-all; cursor: pointer;&quot; class=&quot;markdown-inline-code leading-[1.4]&quot;&gt;&lt;span style=&quot;scrollbar-color: var(--vscode-scrollbarSlider-background,#424242) var(--vscode-editor-background,#1e1e1e);&quot;&gt;helpers/exercise_helpers.py&lt;/span&gt;&lt;/span&gt;&lt;span style=&quot;scrollbar-color: var(--vscode-scrollbarSlider-background,#424242) var(--vscode-editor-background,#1e1e1e);&quot;&gt;)&lt;/span&gt;&lt;/li&gt;&lt;/ul&gt;&lt;ul style=&quot;scrollbar-color: var(--vscode-scrollbarSlider-background,#424242) var(--vscode-editor-background,#1e1e1e); color: rgb(216, 222, 233); font-family: -apple-system, &amp;quot;system-ui&amp;quot;, sans-serif; font-size: 13px; font-style: normal; font-variant-ligatures: normal; font-variant-caps: normal; font-weight: 400; letter-spacing: normal; orphans: 2; text-align: start; text-indent: 0px; text-transform: none; widows: 2; word-spacing: 0px; -webkit-text-stroke-width: 0px; background-color: rgb(20, 20, 20); text-decoration-thickness: initial; text-decoration-style: initial; text-decoration-color: initial; margin: 0px 0px 0px 16px; padding: 0px;&quot;&gt;&lt;li style=&quot;scrollbar-color: var(--vscode-scrollbarSlider-background,#424242) var(--vscode-editor-background,#1e1e1e); margin-bottom: 2px !important; margin-top: 2px !important; margin-left: 0px; padding-top: 2px; padding-bottom: 2px; list-style-type: disc;&quot; data-indent=&quot;0&quot;&gt;&lt;span style=&quot;scrollbar-color: var(--vscode-scrollbarSlider-background,#424242) var(--vscode-editor-background,#1e1e1e); font-weight: 600;&quot; class=&quot;markdown-bold-text&quot;&gt;&lt;span style=&quot;scrollbar-color: var(--vscode-scrollbarSlider-background,#424242) var(--vscode-editor-background,#1e1e1e);&quot;&gt;What happens&lt;/span&gt;&lt;span style=&quot;scrollbar-color: var(--vscode-scrollbarSlider-background,#424242) var(--vscode-editor-background,#1e1e1e);&quot;&gt;:&lt;/span&gt;&lt;/span&gt;&lt;span style=&quot;scrollbar-color: var(--vscode-scrollbarSlider-background,#424242) var(--vscode-editor-background,#1e1e1e);&quot;&gt;&lt;/span&gt;&lt;/li&gt;&lt;/ul&gt;&lt;ul style=&quot;scrollbar-color: var(--vscode-scrollbarSlider-background,#424242) var(--vscode-editor-background,#1e1e1e); color: rgb(216, 222, 233); font-family: -apple-system, &amp;quot;system-ui&amp;quot;, sans-serif; font-size: 13px; font-style: normal; font-variant-ligatures: normal; font-variant-caps: normal; font-weight: 400; letter-spacing: normal; orphans: 2; text-align: start; text-indent: 0px; text-transform: none; widows: 2; word-spacing: 0px; -webkit-text-stroke-width: 0px; background-color: rgb(20, 20, 20); text-decoration-thickness: initial; text-decoration-style: initial; text-decoration-color: initial; margin: 0px 0px 0px 16px; padding: 0px;&quot; class=&quot;nested&quot;&gt;&lt;li style=&quot;scrollbar-color: var(--vscode-scrollbarSlider-background,#424242) var(--vscode-editor-background,#1e1e1e); margin-bottom: 2px !important; margin-top: 2px !important; margin-left: 16px; padding-top: 2px; padding-bottom: 2px; list-style-type: disc;&quot; class=&quot;nested&quot; data-indent=&quot;2&quot;&gt;&lt;span style=&quot;scrollbar-color: var(--vscode-scrollbarSlider-background,#424242) var(--vscode-editor-background,#1e1e1e);&quot;&gt;Promotes&lt;/span&gt;&lt;span style=&quot;scrollbar-color: var(--vscode-scrollbarSlider-background,#424242) var(--vscode-editor-background,#1e1e1e);&quot;&gt;&lt;span&gt;&amp;nbsp;&lt;/span&gt;&lt;/span&gt;&lt;span style=&quot;scrollbar-color: var(--vscode-scrollbarSlider-background,#424242) var(--vscode-editor-background,#1e1e1e); line-height: 1.4; background-color: var(--vscode-textCodeBlock-background); border-radius: 4px; color: var(--vscode-textLink-foreground); font-family: Menlo, Monaco, &amp;quot;Courier New&amp;quot;, monospace, Menlo, Monaco, &amp;quot;Courier New&amp;quot;, monospace; font-size: 0.9em; padding: 1.5px 3px; transition: 0.1s; border-color: var(--vscode-textLink-foreground); word-break: break-all; cursor: pointer;&quot; class=&quot;markdown-inline-code leading-[1.4]&quot;&gt;&lt;span style=&quot;scrollbar-color: var(--vscode-scrollbarSlider-background,#424242) var(--vscode-editor-background,#1e1e1e);&quot;&gt;next&lt;/span&gt;&lt;span style=&quot;scrollbar-color: var(--vscode-scrollbarSlider-background,#424242) var(--vscode-editor-background,#1e1e1e);&quot;&gt;_ex&lt;/span&gt;&lt;span style=&quot;scrollbar-color: var(--vscode-scrollbarSlider-background,#424242) var(--vscode-editor-background,#1e1e1e);&quot;&gt;ercises&lt;/span&gt;&lt;/span&gt;&lt;span style=&quot;scrollbar-color: var(--vscode-scrollbarSlider-background,#424242) var(--vscode-editor-background,#1e1e1e);&quot;&gt;&lt;span&gt;&amp;nbsp;&lt;/span&gt;to&lt;/span&gt;&lt;span style=&quot;scrollbar-color: var(--vscode-scrollbarSlider-background,#424242) var(--vscode-editor-background,#1e1e1e);&quot;&gt;&lt;span&gt;&amp;nbsp;&lt;/span&gt;become&lt;/span&gt;&lt;span style=&quot;scrollbar-color: var(--vscode-scrollbarSlider-background,#424242) var(--vscode-editor-background,#1e1e1e);&quot;&gt;&lt;span&gt;&amp;nbsp;&lt;/span&gt;the new&lt;span&gt;&amp;nbsp;&lt;/span&gt;&lt;/span&gt;&lt;span style=&quot;scrollbar-color: var(--vscode-scrollbarSlider-background,#424242) var(--vscode-editor-background,#1e1e1e); line-height: 1.4; background-color: var(--vscode-textCodeBlock-background); border-radius: 4px; color: var(--vscode-textLink-foreground); font-family: Menlo, Monaco, &amp;quot;Courier New&amp;quot;, monospace, Menlo, Monaco, &amp;quot;Courier New&amp;quot;, monospace; font-size: 0.9em; padding: 1.5px 3px; transition: 0.1s; border-color: var(--vscode-textLink-foreground); word-break: break-all; cursor: pointer;&quot; class=&quot;markdown-inline-code leading-[1.4]&quot;&gt;&lt;span style=&quot;scrollbar-color: var(--vscode-scrollbarSlider-background,#424242) var(--vscode-editor-background,#1e1e1e);&quot;&gt;exercises&lt;/span&gt;&lt;/span&gt;&lt;span style=&quot;scrollbar-color: var(--vscode-scrollbarSlider-background,#424242) var(--vscode-editor-background,#1e1e1e);&quot;&gt;&lt;span&gt;&amp;nbsp;&lt;/span&gt;&lt;/span&gt;&lt;span style=&quot;scrollbar-color: var(--vscode-scrollbarSlider-background,#424242) var(--vscode-editor-background,#1e1e1e);&quot;&gt;(the&lt;/span&gt;&lt;span style=&quot;scrollbar-color: var(--vscode-scrollbarSlider-background,#424242) var(--vscode-editor-background,#1e1e1e);&quot;&gt;&lt;span&gt;&amp;nbsp;&lt;/span&gt;user’s next&lt;/span&gt;&lt;span style=&quot;scrollbar-color: var(--vscode-scrollbarSlider-background,#424242) var(--vscode-editor-background,#1e1e1e);&quot;&gt;&lt;span&gt;&amp;nbsp;&lt;/span&gt;block&lt;/span&gt;&lt;span style=&quot;scrollbar-color: var(--vscode-scrollbarSlider-background,#424242) var(--vscode-editor-background,#1e1e1e);&quot;&gt;).&lt;/span&gt;&lt;/li&gt;&lt;/ul&gt;&lt;ul style=&quot;scrollbar-color: var(--vscode-scrollbarSlider-background,#424242) var(--vscode-editor-background,#1e1e1e); color: rgb(216, 222, 233); font-family: -apple-system, &amp;quot;system-ui&amp;quot;, sans-serif; font-size: 13px; font-style: normal; font-variant-ligatures: normal; font-variant-caps: normal; font-weight: 400; letter-spacing: normal; orphans: 2; text-align: start; text-indent: 0px; text-transform: none; widows: 2; word-spacing: 0px; -webkit-text-stroke-width: 0px; background-color: rgb(20, 20, 20); text-decoration-thickness: initial; text-decoration-style: initial; text-decoration-color: initial; margin: 0px 0px 0px 16px; padding: 0px;&quot; class=&quot;nested&quot;&gt;&lt;li style=&quot;scrollbar-color: var(--vscode-scrollbarSlider-background,#424242) var(--vscode-editor-background,#1e1e1e); margin-bottom: 2px !important; margin-top: 2px !important; margin-left: 16px; padding-top: 2px; padding-bottom: 2px; list-style-type: disc;&quot; class=&quot;nested&quot; data-indent=&quot;2&quot;&gt;&lt;span style=&quot;scrollbar-color: var(--vscode-scrollbarSlider-background,#424242) var(--vscode-editor-background,#1e1e1e);&quot;&gt;Generates a&lt;span&gt;&amp;nbsp;&lt;/span&gt;&lt;/span&gt;&lt;span style=&quot;scrollbar-color: var(--vscode-scrollbarSlider-background,#424242) var(--vscode-editor-background,#1e1e1e); font-weight: 600;&quot; class=&quot;markdown-bold-text&quot;&gt;&lt;span style=&quot;scrollbar-color: var(--vscode-scrollbarSlider-background,#424242) var(--vscode-editor-background,#1e1e1e);&quot;&gt;new next block&lt;/span&gt;&lt;/span&gt;&lt;span style=&quot;scrollbar-color: var(--vscode-scrollbarSlider-background,#424242) var(--vscode-editor-background,#1e1e1e);&quot;&gt;&lt;span&gt;&amp;nbsp;&lt;/span&gt;(using&lt;span&gt;&amp;nbsp;&lt;/span&gt;&lt;/span&gt;&lt;span style=&quot;scrollbar-color: var(--vscode-scrollbarSlider-background,#424242) var(--vscode-editor-background,#1e1e1e); line-height: 1.4; background-color: var(--vscode-textCodeBlock-background); border-radius: 4px; color: var(--vscode-textLink-foreground); font-family: Menlo, Monaco, &amp;quot;Courier New&amp;quot;, monospace, Menlo, Monaco, &amp;quot;Courier New&amp;quot;, monospace; font-size: 0.9em; padding: 1.5px 3px; transition: 0.1s; border-color: var(--vscode-textLink-foreground); word-break: break-all; cursor: pointer;&quot; class=&quot;markdown-inline-code leading-[1.4]&quot;&gt;&lt;span style=&quot;scrollbar-color: var(--vscode-scrollbarSlider-background,#424242) var(--vscode-editor-background,#1e1e1e);&quot;&gt;generate&lt;/span&gt;&lt;span style=&quot;scrollbar-color: var(--vscode-scrollbarSlider-background,#424242) var(--vscode-editor-background,#1e1e1e);&quot;&gt;_new_exercises&lt;/span&gt;&lt;/span&gt;&lt;span style=&quot;scrollbar-color: var(--vscode-scrollbarSlider-background,#424242) var(--vscode-editor-background,#1e1e1e);&quot;&gt;), and updates&lt;/span&gt;&lt;span style=&quot;scrollbar-color: var(--vscode-scrollbarSlider-background,#424242) var(--vscode-editor-background,#1e1e1e);&quot;&gt;&lt;span&gt;&amp;nbsp;&lt;/span&gt;&lt;/span&gt;&lt;span style=&quot;scrollbar-color: var(--vscode-scrollbarSlider-background,#424242) var(--vscode-editor-background,#1e1e1e); line-height: 1.4; background-color: var(--vscode-textCodeBlock-background); border-radius: 4px; color: var(--vscode-textLink-foreground); font-family: Menlo, Monaco, &amp;quot;Courier New&amp;quot;, monospace, Menlo, Monaco, &amp;quot;Courier New&amp;quot;, monospace; font-size: 0.9em; padding: 1.5px 3px; transition: 0.1s; border-color: var(--vscode-textLink-foreground); word-break: break-all; cursor: pointer;&quot; class=&quot;markdown-inline-code leading-[1.4]&quot;&gt;&lt;span style=&quot;scrollbar-color: var(--vscode-scrollbarSlider-background,#424242) var(--vscode-editor-background,#1e1e1e);&quot;&gt;next_exercises&lt;/span&gt;&lt;/span&gt;&lt;span style=&quot;scrollbar-color: var(--vscode-scrollbarSlider-background,#424242) var(--vscode-editor-background,#1e1e1e);&quot;&gt;.&lt;/span&gt;&lt;/li&gt;&lt;/ul&gt;&lt;ul style=&quot;scrollbar-color: var(--vscode-scrollbarSlider-background,#424242) var(--vscode-editor-background,#1e1e1e); color: rgb(216, 222, 233); font-family: -apple-system, &amp;quot;system-ui&amp;quot;, sans-serif; font-size: 13px; font-style: normal; font-variant-ligatures: normal; font-variant-caps: normal; font-weight: 400; letter-spacing: normal; orphans: 2; text-align: start; text-indent: 0px; text-transform: none; widows: 2; word-spacing: 0px; -webkit-text-stroke-width: 0px; background-color: rgb(20, 20, 20); text-decoration-thickness: initial; text-decoration-style: initial; text-decoration-color: initial; margin: 0px 0px 0px 16px; padding: 0px;&quot; class=&quot;nested&quot;&gt;&lt;li style=&quot;scrollbar-color: var(--vscode-scrollbarSlider-background,#424242) var(--vscode-editor-background,#1e1e1e); margin-bottom: 2px !important; margin-top: 2px !important; margin-left: 16px; padding-top: 2px; padding-bottom: 2px; list-style-type: disc;&quot; class=&quot;nested&quot; data-indent=&quot;2&quot;&gt;&lt;span style=&quot;scrollbar-color: var(--vscode-scrollbarSlider-background,#424242) var(--vscode-editor-background,#1e1e1e);&quot;&gt;Updates&lt;span&gt;&amp;nbsp;&lt;/span&gt;&lt;/span&gt;&lt;span style=&quot;scrollbar-color: var(--vscode-scrollbarSlider-background,#424242) var(--vscode-editor-background,#1e1e1e); line-height: 1.4; background-color: var(--vscode-textCodeBlock-background); border-radius: 4px; color: var(--vscode-textLink-foreground); font-family: Menlo, Monaco, &amp;quot;Courier New&amp;quot;, monospace, Menlo, Monaco, &amp;quot;Courier New&amp;quot;, monospace; font-size: 0.9em; padding: 1.5px 3px; transition: 0.1s; border-color: var(--vscode-textLink-foreground); word-break: break-all; cursor: pointer;&quot; class=&quot;markdown-inline-code leading-[1.4]&quot;&gt;&lt;span style=&quot;scrollbar-color: var(--vscode-scrollbarSlider-background,#424242) var(--vscode-editor-background,#1e1e1e);&quot;&gt;exercise&lt;/span&gt;&lt;span style=&quot;scrollbar-color: var(--vscode-scrollbarSlider-background,#424242) var(--vscode-editor-background,#1e1e1e);&quot;&gt;_history&lt;/span&gt;&lt;/span&gt;&lt;span style=&quot;scrollbar-color: var(--vscode-scrollbarSlider-background,#424242) var(--vscode-editor-background,#1e1e1e);&quot;&gt;&lt;span&gt;&amp;nbsp;&lt;/span&gt;with new questions.&lt;/span&gt;&lt;/li&gt;&lt;/ul&gt;" style="rounded=0;whiteSpace=wrap;html=1;" vertex="1" parent="1">
                    <mxGeometry x="100" y="1579" width="610" height="190" as="geometry"/>
                </mxCell>
                <mxCell id="11" style="edgeStyle=none;html=1;exitX=0.5;exitY=1;exitDx=0;exitDy=0;entryX=0;entryY=0.5;entryDx=0;entryDy=0;" edge="1" parent="1" source="10" target="5">
                    <mxGeometry relative="1" as="geometry">
                        <Array as="points">
                            <mxPoint x="405" y="2080"/>
                            <mxPoint x="-150" y="2080"/>
                            <mxPoint x="-150" y="775"/>
                        </Array>
                    </mxGeometry>
                </mxCell>
                <mxCell id="10" value="&lt;meta charset=&quot;utf-8&quot;&gt;&lt;h4 style=&quot;scrollbar-color: var(--vscode-scrollbarSlider-background,#424242) var(--vscode-editor-background,#1e1e1e); font-size: 1.05em; line-height: 1.25; margin-bottom: 8px; margin-top: 16px; color: rgb(216, 222, 233); font-family: -apple-system, &amp;quot;system-ui&amp;quot;, sans-serif; font-style: normal; font-variant-ligatures: normal; font-variant-caps: normal; letter-spacing: normal; orphans: 2; text-align: start; text-indent: 0px; text-transform: none; widows: 2; word-spacing: 0px; -webkit-text-stroke-width: 0px; background-color: rgb(20, 20, 20); text-decoration-thickness: initial; text-decoration-style: initial; text-decoration-color: initial;&quot;&gt;&lt;span style=&quot;scrollbar-color: var(--vscode-scrollbarSlider-background,#424242) var(--vscode-editor-background,#1e1e1e); font-weight: 600;&quot; class=&quot;markdown-bold-text&quot;&gt;&lt;span style=&quot;scrollbar-color: var(--vscode-scrollbarSlider-background,#424242) var(--vscode-editor-background,#1e1e1e);&quot;&gt;8&lt;/span&gt;&lt;span style=&quot;scrollbar-color: var(--vscode-scrollbarSlider-background,#424242) var(--vscode-editor-background,#1e1e1e);&quot;&gt;. Store Updated Blocks&lt;/span&gt;&lt;/span&gt;&lt;/h4&gt;&lt;ul style=&quot;scrollbar-color: var(--vscode-scrollbarSlider-background,#424242) var(--vscode-editor-background,#1e1e1e); margin: 0px 0px 0px 16px; color: rgb(216, 222, 233); font-family: -apple-system, &amp;quot;system-ui&amp;quot;, sans-serif; font-size: 13px; font-style: normal; font-variant-ligatures: normal; font-variant-caps: normal; font-weight: 400; letter-spacing: normal; orphans: 2; text-align: start; text-indent: 0px; text-transform: none; widows: 2; word-spacing: 0px; -webkit-text-stroke-width: 0px; background-color: rgb(20, 20, 20); text-decoration-thickness: initial; text-decoration-style: initial; text-decoration-color: initial; padding: 0px;&quot;&gt;&lt;li style=&quot;scrollbar-color: var(--vscode-scrollbarSlider-background,#424242) var(--vscode-editor-background,#1e1e1e); margin-bottom: 2px !important; margin-top: 2px !important; margin-left: 0px; padding-top: 2px; padding-bottom: 2px; list-style-type: disc;&quot; data-indent=&quot;0&quot;&gt;&lt;span style=&quot;scrollbar-color: var(--vscode-scrollbarSlider-background,#424242) var(--vscode-editor-background,#1e1e1e); font-weight: 600;&quot; class=&quot;markdown-bold-text&quot;&gt;&lt;span style=&quot;scrollbar-color: var(--vscode-scrollbarSlider-background,#424242) var(--vscode-editor-background,#1e1e1e);&quot;&gt;Function:&lt;/span&gt;&lt;/span&gt;&lt;span style=&quot;scrollbar-color: var(--vscode-scrollbarSlider-background,#424242) var(--vscode-editor-background,#1e1e1e);&quot;&gt;&lt;span&gt;&amp;nbsp;&lt;/span&gt;&lt;/span&gt;&lt;span style=&quot;scrollbar-color: var(--vscode-scrollbarSlider-background,#424242) var(--vscode-editor-background,#1e1e1e); line-height: 1.4; background-color: var(--vscode-textCodeBlock-background); border-radius: 4px; color: var(--vscode-textLink-foreground); font-family: Menlo, Monaco, &amp;quot;Courier New&amp;quot;, monospace, Menlo, Monaco, &amp;quot;Courier New&amp;quot;, monospace; font-size: 0.9em; padding: 1.5px 3px; transition: 0.1s; border-color: var(--vscode-textLink-foreground); word-break: break-all; cursor: pointer;&quot; class=&quot;markdown-inline-code leading-[1.4]&quot;&gt;&lt;span style=&quot;scrollbar-color: var(--vscode-scrollbarSlider-background,#424242) var(--vscode-editor-background,#1e1e1e);&quot;&gt;store&lt;/span&gt;&lt;span style=&quot;scrollbar-color: var(--vscode-scrollbarSlider-background,#424242) var(--vscode-editor-background,#1e1e1e);&quot;&gt;_user_ai_data&lt;/span&gt;&lt;/span&gt;&lt;span style=&quot;scrollbar-color: var(--vscode-scrollbarSlider-background,#424242) var(--vscode-editor-background,#1e1e1e);&quot;&gt;&lt;span&gt;&amp;nbsp;&lt;/span&gt;(&lt;/span&gt;&lt;span style=&quot;scrollbar-color: var(--vscode-scrollbarSlider-background,#424242) var(--vscode-editor-background,#1e1e1e); line-height: 1.4; background-color: var(--vscode-textCodeBlock-background); border-radius: 4px; color: var(--vscode-textLink-foreground); font-family: Menlo, Monaco, &amp;quot;Courier New&amp;quot;, monospace, Menlo, Monaco, &amp;quot;Courier New&amp;quot;, monospace; font-size: 0.9em; padding: 1.5px 3px; transition: 0.1s; border-color: var(--vscode-textLink-foreground); word-break: break-all; cursor: pointer;&quot; class=&quot;markdown-inline-code leading-[1.4]&quot;&gt;&lt;span style=&quot;scrollbar-color: var(--vscode-scrollbarSlider-background,#424242) var(--vscode-editor-background,#1e1e1e);&quot;&gt;helpers/exercise_helpers.py&lt;/span&gt;&lt;/span&gt;&lt;span style=&quot;scrollbar-color: var(--vscode-scrollbarSlider-background,#424242) var(--vscode-editor-background,#1e1e1e);&quot;&gt;)&lt;/span&gt;&lt;/li&gt;&lt;/ul&gt;&lt;ul style=&quot;scrollbar-color: var(--vscode-scrollbarSlider-background,#424242) var(--vscode-editor-background,#1e1e1e); color: rgb(216, 222, 233); font-family: -apple-system, &amp;quot;system-ui&amp;quot;, sans-serif; font-size: 13px; font-style: normal; font-variant-ligatures: normal; font-variant-caps: normal; font-weight: 400; letter-spacing: normal; orphans: 2; text-align: start; text-indent: 0px; text-transform: none; widows: 2; word-spacing: 0px; -webkit-text-stroke-width: 0px; background-color: rgb(20, 20, 20); text-decoration-thickness: initial; text-decoration-style: initial; text-decoration-color: initial; margin: 0px 0px 0px 16px; padding: 0px;&quot;&gt;&lt;li style=&quot;scrollbar-color: var(--vscode-scrollbarSlider-background,#424242) var(--vscode-editor-background,#1e1e1e); margin-bottom: 2px !important; margin-top: 2px !important; margin-left: 0px; padding-top: 2px; padding-bottom: 2px; list-style-type: disc;&quot; data-indent=&quot;0&quot;&gt;&lt;span style=&quot;scrollbar-color: var(--vscode-scrollbarSlider-background,#424242) var(--vscode-editor-background,#1e1e1e); font-weight: 600;&quot; class=&quot;markdown-bold-text&quot;&gt;&lt;span style=&quot;scrollbar-color: var(--vscode-scrollbarSlider-background,#424242) var(--vscode-editor-background,#1e1e1e);&quot;&gt;What happens:&lt;/span&gt;&lt;/span&gt;&lt;span style=&quot;scrollbar-color: var(--vscode-scrollbarSlider-background,#424242) var(--vscode-editor-background,#1e1e1e);&quot;&gt;&lt;/span&gt;&lt;/li&gt;&lt;/ul&gt;&lt;ul style=&quot;scrollbar-color: var(--vscode-scrollbarSlider-background,#424242) var(--vscode-editor-background,#1e1e1e); color: rgb(216, 222, 233); font-family: -apple-system, &amp;quot;system-ui&amp;quot;, sans-serif; font-size: 13px; font-style: normal; font-variant-ligatures: normal; font-variant-caps: normal; font-weight: 400; letter-spacing: normal; orphans: 2; text-align: start; text-indent: 0px; text-transform: none; widows: 2; word-spacing: 0px; -webkit-text-stroke-width: 0px; background-color: rgb(20, 20, 20); text-decoration-thickness: initial; text-decoration-style: initial; text-decoration-color: initial; margin: 0px 0px 0px 16px; padding: 0px;&quot; class=&quot;nested&quot;&gt;&lt;li style=&quot;scrollbar-color: var(--vscode-scrollbarSlider-background,#424242) var(--vscode-editor-background,#1e1e1e); margin-bottom: 2px !important; margin-top: 2px !important; margin-left: 16px; padding-top: 2px; padding-bottom: 2px; list-style-type: disc;&quot; class=&quot;nested&quot; data-indent=&quot;2&quot;&gt;&lt;span style=&quot;scrollbar-color: var(--vscode-scrollbarSlider-background,#424242) var(--vscode-editor-background,#1e1e1e);&quot;&gt;Updates&lt;/span&gt;&lt;span style=&quot;scrollbar-color: var(--vscode-scrollbarSlider-background,#424242) var(--vscode-editor-background,#1e1e1e);&quot;&gt;:&lt;/span&gt;&lt;/li&gt;&lt;/ul&gt;&lt;ul style=&quot;scrollbar-color: var(--vscode-scrollbarSlider-background,#424242) var(--vscode-editor-background,#1e1e1e); color: rgb(216, 222, 233); font-family: -apple-system, &amp;quot;system-ui&amp;quot;, sans-serif; font-size: 13px; font-style: normal; font-variant-ligatures: normal; font-variant-caps: normal; font-weight: 400; letter-spacing: normal; orphans: 2; text-align: start; text-indent: 0px; text-transform: none; widows: 2; word-spacing: 0px; -webkit-text-stroke-width: 0px; background-color: rgb(20, 20, 20); text-decoration-thickness: initial; text-decoration-style: initial; text-decoration-color: initial; margin: 0px 0px 0px 16px; padding: 0px;&quot; class=&quot;nested&quot;&gt;&lt;li style=&quot;scrollbar-color: var(--vscode-scrollbarSlider-background,#424242) var(--vscode-editor-background,#1e1e1e); margin-bottom: 2px !important; margin-top: 2px !important; margin-left: 32px; padding-top: 2px; padding-bottom: 2px; list-style-type: disc;&quot; class=&quot;nested&quot; data-indent=&quot;4&quot;&gt;&lt;span style=&quot;scrollbar-color: var(--vscode-scrollbarSlider-background,#424242) var(--vscode-editor-background,#1e1e1e); line-height: 1.4; background-color: var(--vscode-textCodeBlock-background); border-radius: 4px; color: var(--vscode-textLink-foreground); font-family: Menlo, Monaco, &amp;quot;Courier New&amp;quot;, monospace, Menlo, Monaco, &amp;quot;Courier New&amp;quot;, monospace; font-size: 0.9em; padding: 1.5px 3px; transition: 0.1s; border-color: var(--vscode-textLink-foreground); word-break: break-all; cursor: pointer;&quot; class=&quot;markdown-inline-code leading-[1.4]&quot;&gt;&lt;span style=&quot;scrollbar-color: var(--vscode-scrollbarSlider-background,#424242) var(--vscode-editor-background,#1e1e1e);&quot;&gt;exercises&lt;/span&gt;&lt;/span&gt;&lt;span style=&quot;scrollbar-color: var(--vscode-scrollbarSlider-background,#424242) var(--vscode-editor-background,#1e1e1e);&quot;&gt;&lt;span&gt;&amp;nbsp;&lt;/span&gt;= previous&lt;span&gt;&amp;nbsp;&lt;/span&gt;&lt;/span&gt;&lt;span style=&quot;scrollbar-color: var(--vscode-scrollbarSlider-background,#424242) var(--vscode-editor-background,#1e1e1e); line-height: 1.4; background-color: var(--vscode-textCodeBlock-background); border-radius: 4px; color: var(--vscode-textLink-foreground); font-family: Menlo, Monaco, &amp;quot;Courier New&amp;quot;, monospace, Menlo, Monaco, &amp;quot;Courier New&amp;quot;, monospace; font-size: 0.9em; padding: 1.5px 3px; transition: 0.1s; border-color: var(--vscode-textLink-foreground); word-break: break-all; cursor: pointer;&quot; class=&quot;markdown-inline-code leading-[1.4]&quot;&gt;&lt;span style=&quot;scrollbar-color: var(--vscode-scrollbarSlider-background,#424242) var(--vscode-editor-background,#1e1e1e);&quot;&gt;next_exercises&lt;/span&gt;&lt;/span&gt;&lt;/li&gt;&lt;/ul&gt;&lt;ul style=&quot;scrollbar-color: var(--vscode-scrollbarSlider-background,#424242) var(--vscode-editor-background,#1e1e1e); color: rgb(216, 222, 233); font-family: -apple-system, &amp;quot;system-ui&amp;quot;, sans-serif; font-size: 13px; font-style: normal; font-variant-ligatures: normal; font-variant-caps: normal; font-weight: 400; letter-spacing: normal; orphans: 2; text-align: start; text-indent: 0px; text-transform: none; widows: 2; word-spacing: 0px; -webkit-text-stroke-width: 0px; background-color: rgb(20, 20, 20); text-decoration-thickness: initial; text-decoration-style: initial; text-decoration-color: initial; margin: 0px 0px 0px 16px; padding: 0px;&quot; class=&quot;nested&quot;&gt;&lt;li style=&quot;scrollbar-color: var(--vscode-scrollbarSlider-background,#424242) var(--vscode-editor-background,#1e1e1e); margin-bottom: 2px !important; margin-top: 2px !important; margin-left: 32px; padding-top: 2px; padding-bottom: 2px; list-style-type: disc;&quot; class=&quot;nested&quot; data-indent=&quot;4&quot;&gt;&lt;span style=&quot;scrollbar-color: var(--vscode-scrollbarSlider-background,#424242) var(--vscode-editor-background,#1e1e1e); line-height: 1.4; background-color: var(--vscode-textCodeBlock-background); border-radius: 4px; color: var(--vscode-textLink-foreground); font-family: Menlo, Monaco, &amp;quot;Courier New&amp;quot;, monospace, Menlo, Monaco, &amp;quot;Courier New&amp;quot;, monospace; font-size: 0.9em; padding: 1.5px 3px; transition: 0.1s; border-color: var(--vscode-textLink-foreground); word-break: break-all; cursor: pointer;&quot; class=&quot;markdown-inline-code leading-[1.4]&quot;&gt;&lt;span style=&quot;scrollbar-color: var(--vscode-scrollbarSlider-background,#424242) var(--vscode-editor-background,#1e1e1e);&quot;&gt;next_ex&lt;/span&gt;&lt;span style=&quot;scrollbar-color: var(--vscode-scrollbarSlider-background,#424242) var(--vscode-editor-background,#1e1e1e);&quot;&gt;ercises&lt;/span&gt;&lt;/span&gt;&lt;span style=&quot;scrollbar-color: var(--vscode-scrollbarSlider-background,#424242) var(--vscode-editor-background,#1e1e1e);&quot;&gt;&lt;span&gt;&amp;nbsp;&lt;/span&gt;= newly generated block&lt;/span&gt;&lt;/li&gt;&lt;/ul&gt;" style="rounded=0;whiteSpace=wrap;html=1;" vertex="1" parent="1">
                    <mxGeometry x="100" y="1789" width="610" height="190" as="geometry"/>
                </mxCell>
            </root>
        </mxGraphModel>
    </diagram>
</mxfile>
